<svg width="27" height="38" viewBox="0 0 27 38" fill="none" xmlns="http://www.w3.org/2000/svg">
<path d="M13.7159 17.7333C12.4929 17.7333 11.3201 17.2475 10.4553 16.3827C9.59056 15.518 9.10475 14.3451 9.10475 13.1221C9.10475 11.8992 9.59056 10.7263 10.4553 9.86157C11.3201 8.99681 12.4929 8.51099 13.7159 8.51099C14.9388 8.51099 16.1117 8.99681 16.9765 9.86157C17.8412 10.7263 18.327 11.8992 18.327 13.1221C18.327 13.7277 18.2078 14.3273 17.976 14.8867C17.7443 15.4462 17.4046 15.9545 16.9765 16.3827C16.5483 16.8109 16.0399 17.1505 15.4805 17.3823C14.921 17.614 14.3214 17.7333 13.7159 17.7333ZM13.7159 0.210938C10.2916 0.210938 7.00761 1.57122 4.58629 3.99254C2.16497 6.41386 0.804688 9.69788 0.804688 13.1221C0.804688 22.8055 13.7159 37.1001 13.7159 37.1001C13.7159 37.1001 26.6271 22.8055 26.6271 13.1221C26.6271 9.69788 25.2668 6.41386 22.8455 3.99254C20.4242 1.57122 17.1402 0.210938 13.7159 0.210938Z" fill="#FFF6EE"/>
<path d="M13.7159 17.7333C12.4929 17.7333 11.3201 17.2475 10.4553 16.3827C9.59056 15.518 9.10475 14.3451 9.10475 13.1221C9.10475 11.8992 9.59056 10.7263 10.4553 9.86157C11.3201 8.99681 12.4929 8.51099 13.7159 8.51099C14.9388 8.51099 16.1117 8.99681 16.9765 9.86157C17.8412 10.7263 18.327 11.8992 18.327 13.1221C18.327 13.7277 18.2078 14.3273 17.976 14.8867C17.7443 15.4462 17.4046 15.9545 16.9765 16.3827C16.5483 16.8109 16.0399 17.1505 15.4805 17.3823C14.921 17.614 14.3214 17.7333 13.7159 17.7333ZM13.7159 0.210938C10.2916 0.210938 7.00761 1.57122 4.58629 3.99254C2.16497 6.41386 0.804688 9.69788 0.804688 13.1221C0.804688 22.8055 13.7159 37.1001 13.7159 37.1001C13.7159 37.1001 26.6271 22.8055 26.6271 13.1221C26.6271 9.69788 25.2668 6.41386 22.8455 3.99254C20.4242 1.57122 17.1402 0.210938 13.7159 0.210938Z" fill="url(#paint0_linear_105_119)"/>
<path d="M13.7159 17.7333C12.4929 17.7333 11.3201 17.2475 10.4553 16.3827C9.59056 15.518 9.10475 14.3451 9.10475 13.1221C9.10475 11.8992 9.59056 10.7263 10.4553 9.86157C11.3201 8.99681 12.4929 8.51099 13.7159 8.51099C14.9388 8.51099 16.1117 8.99681 16.9765 9.86157C17.8412 10.7263 18.327 11.8992 18.327 13.1221C18.327 13.7277 18.2078 14.3273 17.976 14.8867C17.7443 15.4462 17.4046 15.9545 16.9765 16.3827C16.5483 16.8109 16.0399 17.1505 15.4805 17.3823C14.921 17.614 14.3214 17.7333 13.7159 17.7333ZM13.7159 0.210938C10.2916 0.210938 7.00761 1.57122 4.58629 3.99254C2.16497 6.41386 0.804688 9.69788 0.804688 13.1221C0.804688 22.8055 13.7159 37.1001 13.7159 37.1001C13.7159 37.1001 26.6271 22.8055 26.6271 13.1221C26.6271 9.69788 25.2668 6.41386 22.8455 3.99254C20.4242 1.57122 17.1402 0.210938 13.7159 0.210938Z" fill="#DEC58C"/>
<path d="M13.7159 17.7333C12.4929 17.7333 11.3201 17.2475 10.4553 16.3827C9.59056 15.518 9.10475 14.3451 9.10475 13.1221C9.10475 11.8992 9.59056 10.7263 10.4553 9.86157C11.3201 8.99681 12.4929 8.51099 13.7159 8.51099C14.9388 8.51099 16.1117 8.99681 16.9765 9.86157C17.8412 10.7263 18.327 11.8992 18.327 13.1221C18.327 13.7277 18.2078 14.3273 17.976 14.8867C17.7443 15.4462 17.4046 15.9545 16.9765 16.3827C16.5483 16.8109 16.0399 17.1505 15.4805 17.3823C14.921 17.614 14.3214 17.7333 13.7159 17.7333ZM13.7159 0.210938C10.2916 0.210938 7.00761 1.57122 4.58629 3.99254C2.16497 6.41386 0.804688 9.69788 0.804688 13.1221C0.804688 22.8055 13.7159 37.1001 13.7159 37.1001C13.7159 37.1001 26.6271 22.8055 26.6271 13.1221C26.6271 9.69788 25.2668 6.41386 22.8455 3.99254C20.4242 1.57122 17.1402 0.210938 13.7159 0.210938Z" fill="url(#paint1_linear_105_119)"/>
<defs>
<linearGradient id="paint0_linear_105_119" x1="-244.573" y1="-226.337" x2="45.4067" y2="-201.774" gradientUnits="userSpaceOnUse">
<stop stop-color="#AA851B"/>
<stop offset="1" stop-color="#F7CD93"/>
</linearGradient>
<linearGradient id="paint1_linear_105_119" x1="0.804688" y1="18.6555" x2="26.6271" y2="18.6555" gradientUnits="userSpaceOnUse">
<stop stop-color="#FFFFE3"/>
<stop offset="0.41" stop-color="#DEC48F"/>
<stop offset="1" stop-color="#F4E5B1"/>
</linearGradient>
</defs>
</svg>
