<svg width="85" height="90" viewBox="0 0 85 90" fill="none" xmlns="http://www.w3.org/2000/svg">
<path d="M0.717224 0.96875H29.898C25.6634 2.40743 21.8903 8.89507 21.8903 11.1752H12.3895V39.5417H27.8079C41.516 39.5417 43.5519 39.3517 46.0764 37.8044C50.2567 35.2528 52.1026 31.1811 51.994 24.6934V18.1786H63.1505V28.168C62.7434 34.3027 60.6804 39.596 57.2058 43.3691L55.36 45.3778L57.2058 47.3866C60.6804 51.1597 62.7434 56.453 63.1505 62.5877V72.577H51.994V66.0623C52.1026 59.5475 50.2567 55.5029 46.0764 52.9513C43.5248 51.404 41.516 51.214 27.8079 51.214H12.3895V79.5805H21.8903C21.8903 81.8606 25.6634 88.3483 29.898 89.7869H0.717224V0.96875Z" fill="white"/>
<path d="M0.717224 0.96875H29.898C25.6634 2.40743 21.8903 8.89507 21.8903 11.1752H12.3895V39.5417H27.8079C41.516 39.5417 43.5519 39.3517 46.0764 37.8044C50.2567 35.2528 52.1026 31.1811 51.994 24.6934V18.1786H63.1505V28.168C62.7434 34.3027 60.6804 39.596 57.2058 43.3691L55.36 45.3778L57.2058 47.3866C60.6804 51.1597 62.7434 56.453 63.1505 62.5877V72.577H51.994V66.0623C52.1026 59.5475 50.2567 55.5029 46.0764 52.9513C43.5248 51.404 41.516 51.214 27.8079 51.214H12.3895V79.5805H21.8903C21.8903 81.8606 25.6634 88.3483 29.898 89.7869H0.717224V0.96875Z" fill="url(#paint0_linear_105_55)"/>
<path d="M0.717224 0.96875H29.898C25.6634 2.40743 21.8903 8.89507 21.8903 11.1752H12.3895V39.5417H27.8079C41.516 39.5417 43.5519 39.3517 46.0764 37.8044C50.2567 35.2528 52.1026 31.1811 51.994 24.6934V18.1786H63.1505V28.168C62.7434 34.3027 60.6804 39.596 57.2058 43.3691L55.36 45.3778L57.2058 47.3866C60.6804 51.1597 62.7434 56.453 63.1505 62.5877V72.577H51.994V66.0623C52.1026 59.5475 50.2567 55.5029 46.0764 52.9513C43.5248 51.404 41.516 51.214 27.8079 51.214H12.3895V79.5805H21.8903C21.8903 81.8606 25.6634 88.3483 29.898 89.7869H0.717224V0.96875Z" fill="#DEC58C"/>
<path d="M0.717224 0.96875H29.898C25.6634 2.40743 21.8903 8.89507 21.8903 11.1752H12.3895V39.5417H27.8079C41.516 39.5417 43.5519 39.3517 46.0764 37.8044C50.2567 35.2528 52.1026 31.1811 51.994 24.6934V18.1786H63.1505V28.168C62.7434 34.3027 60.6804 39.596 57.2058 43.3691L55.36 45.3778L57.2058 47.3866C60.6804 51.1597 62.7434 56.453 63.1505 62.5877V72.577H51.994V66.0623C52.1026 59.5475 50.2567 55.5029 46.0764 52.9513C43.5248 51.404 41.516 51.214 27.8079 51.214H12.3895V79.5805H21.8903C21.8903 81.8606 25.6634 88.3483 29.898 89.7869H0.717224V0.96875Z" fill="url(#paint1_linear_105_55)"/>
<path d="M84.7828 89.7055V0.96875H42.1653C29.76 0.96875 25.064 16.0885 24.9282 25.372C24.8196 32.6469 24.8739 32.7012 24.8739 32.7012H35.9762V28.8466C35.9762 22.9561 36.5734 17.0114 40.7537 14.1612C43.9025 12.0167 42.8167 12.6954 57.7736 12.6954H73.2191V77.9246H57.7736C42.8167 77.9246 44.8798 77.8432 41.7309 75.7259C37.5506 72.9028 36.0034 67.691 36.0034 61.7734V57.9188H24.9011C24.9011 57.9188 24.8739 57.9731 24.9554 65.2479C25.0911 74.5315 29.7872 89.6512 42.1924 89.6512L84.7828 89.7055Z" fill="white"/>
<path d="M84.7828 89.7055V0.96875H42.1653C29.76 0.96875 25.064 16.0885 24.9282 25.372C24.8196 32.6469 24.8739 32.7012 24.8739 32.7012H35.9762V28.8466C35.9762 22.9561 36.5734 17.0114 40.7537 14.1612C43.9025 12.0167 42.8167 12.6954 57.7736 12.6954H73.2191V77.9246H57.7736C42.8167 77.9246 44.8798 77.8432 41.7309 75.7259C37.5506 72.9028 36.0034 67.691 36.0034 61.7734V57.9188H24.9011C24.9011 57.9188 24.8739 57.9731 24.9554 65.2479C25.0911 74.5315 29.7872 89.6512 42.1924 89.6512L84.7828 89.7055Z" fill="url(#paint2_linear_105_55)"/>
<path d="M84.7828 89.7055V0.96875H42.1653C29.76 0.96875 25.064 16.0885 24.9282 25.372C24.8196 32.6469 24.8739 32.7012 24.8739 32.7012H35.9762V28.8466C35.9762 22.9561 36.5734 17.0114 40.7537 14.1612C43.9025 12.0167 42.8167 12.6954 57.7736 12.6954H73.2191V77.9246H57.7736C42.8167 77.9246 44.8798 77.8432 41.7309 75.7259C37.5506 72.9028 36.0034 67.691 36.0034 61.7734V57.9188H24.9011C24.9011 57.9188 24.8739 57.9731 24.9554 65.2479C25.0911 74.5315 29.7872 89.6512 42.1924 89.6512L84.7828 89.7055Z" fill="#DEC58C"/>
<path d="M84.7828 89.7055V0.96875H42.1653C29.76 0.96875 25.064 16.0885 24.9282 25.372C24.8196 32.6469 24.8739 32.7012 24.8739 32.7012H35.9762V28.8466C35.9762 22.9561 36.5734 17.0114 40.7537 14.1612C43.9025 12.0167 42.8167 12.6954 57.7736 12.6954H73.2191V77.9246H57.7736C42.8167 77.9246 44.8798 77.8432 41.7309 75.7259C37.5506 72.9028 36.0034 67.691 36.0034 61.7734V57.9188H24.9011C24.9011 57.9188 24.8739 57.9731 24.9554 65.2479C25.0911 74.5315 29.7872 89.6512 42.1924 89.6512L84.7828 89.7055Z" fill="url(#paint3_linear_105_55)"/>
<defs>
<linearGradient id="paint0_linear_105_55" x1="-59.5897" y1="0.968752" x2="142.289" y2="162.922" gradientUnits="userSpaceOnUse">
<stop stop-color="#AA851B"/>
<stop offset="1" stop-color="#F7CD93"/>
</linearGradient>
<linearGradient id="paint1_linear_105_55" x1="0.717224" y1="45.3778" x2="84.7828" y2="45.3778" gradientUnits="userSpaceOnUse">
<stop stop-color="#FFFFE3"/>
<stop offset="0.41" stop-color="#DEC48F"/>
<stop offset="1" stop-color="#F4E5B1"/>
</linearGradient>
<linearGradient id="paint2_linear_105_55" x1="-59.5897" y1="0.968752" x2="142.289" y2="162.922" gradientUnits="userSpaceOnUse">
<stop stop-color="#AA851B"/>
<stop offset="1" stop-color="#F7CD93"/>
</linearGradient>
<linearGradient id="paint3_linear_105_55" x1="0.717224" y1="45.3778" x2="84.7828" y2="45.3778" gradientUnits="userSpaceOnUse">
<stop stop-color="#FFFFE3"/>
<stop offset="0.41" stop-color="#DEC48F"/>
<stop offset="1" stop-color="#F4E5B1"/>
</linearGradient>
</defs>
</svg>
