<svg width="298" height="61" viewBox="0 0 298 61" fill="none" xmlns="http://www.w3.org/2000/svg">
<path d="M0.694472 0.034668H16.5613C18.9518 0.034668 21.0304 0.242518 22.7626 0.692888C24.5294 1.10861 25.9845 1.69757 27.1623 2.45973C28.3056 3.2219 29.1717 4.12263 29.726 5.16194C30.2803 6.2359 30.5574 7.37914 30.5574 8.66096C30.5574 10.3239 30.1071 11.7443 29.1717 12.9568C28.2363 14.1693 26.8506 15.0701 24.9798 15.659C27.3009 16.1094 29.137 17.0448 30.4535 18.4305C31.8046 19.7816 32.4628 21.5138 32.4628 23.6271C32.4628 26.4332 31.285 28.6504 28.9638 30.3133C26.6773 31.9416 23.0051 32.7384 17.9817 32.7384H0.694472V0.034668ZM7.48466 17.8069V29.2394H17.9817C20.3029 29.2394 22.1043 28.789 23.3515 27.8536C24.5987 26.9183 25.2223 25.5325 25.2223 23.6617C25.2223 21.687 24.5987 20.1974 23.3515 19.262C22.1043 18.292 20.3029 17.8069 17.9817 17.8069H7.48466ZM16.596 14.3079C21.0997 14.3079 23.3515 12.4372 23.3515 8.69562C23.3515 7.03271 22.7626 5.78552 21.6193 4.91943C20.5107 4.01869 18.8132 3.56831 16.5613 3.56831H7.45002V14.3079H16.596ZM46.7015 21.306H61.1826L54.1845 4.0187H53.6995L46.7015 21.306ZM59.2772 0.034668L72.5804 32.7038H65.8595L62.7762 24.7703H45.0386L41.9553 32.7038H35.2344L48.5376 0.034668H59.2772ZM83.1121 32.7384H76.3566V0.0692989H83.1121V32.7384ZM105.076 0.034668C107.882 0.034668 110.411 0.381098 112.698 1.10862C114.984 1.80149 116.959 2.80618 118.587 4.19193C120.25 5.57768 121.497 7.27521 122.433 9.31919C123.334 11.3285 123.784 13.6843 123.784 16.3519C123.784 19.0195 123.334 21.4099 122.433 23.4539C121.532 25.4632 120.25 27.1608 118.587 28.5465C116.959 29.9323 115.019 30.9716 112.698 31.6645C110.411 32.3573 107.882 32.7038 105.076 32.7038H89.6598V0.034668H105.076ZM96.4153 3.56831V29.2394H105.042C106.635 29.2394 108.09 28.9969 109.476 28.5465C110.862 28.0615 112.074 27.2993 113.114 26.26C114.153 25.186 114.95 23.8696 115.539 22.2413C116.162 20.6131 116.474 18.673 116.474 16.4212C116.474 14.1693 116.162 12.1946 115.539 10.601C114.95 8.97275 114.153 7.65629 113.114 6.61698C112.074 5.54302 110.862 4.78085 109.476 4.33048C108.09 3.84547 106.635 3.56831 105.042 3.56831H96.4153ZM136.082 21.306H150.564L143.566 4.0187H143.081L136.082 21.306ZM148.693 0.034668L161.996 32.7038H155.275L152.192 24.7703H134.454L131.371 32.7038H124.65L137.953 0.034668H148.693ZM180.704 30.3826C182.228 30.3826 183.614 30.1748 184.826 29.759C186.074 29.3087 187.113 28.6851 188.014 27.7844C188.88 26.8836 189.538 25.7404 190.023 24.3893C190.508 23.0035 190.785 21.3406 190.785 19.4005V0.034668H197.541V19.4005C197.541 24.1814 196.086 27.7843 193.141 30.1401C190.196 32.4959 186.039 33.6738 180.704 33.6738C175.334 33.6738 171.177 32.4959 168.232 30.1748C165.322 27.819 163.901 24.2161 163.901 19.4352V0.0692989H170.657V19.4352C170.657 21.3753 170.9 23.0381 171.35 24.4239C171.835 25.8097 172.528 26.9183 173.394 27.819C174.26 28.6851 175.299 29.3433 176.512 29.7937C177.794 30.2094 179.179 30.3826 180.704 30.3826ZM230.903 29.2394V32.7384H204.054V0.0692989H210.809V29.2394H230.903ZM241.885 3.56831V14.3079H258.929V17.8069H241.885V29.2394H263.606V32.7384H235.129V0.0692989H263.606V3.56831H241.885ZM297.419 3.56831H284.808V32.7384H278.053V3.56831H265.443V0.0692989H297.419V3.56831Z" fill="#0B1F1F"/>
<path d="M168.651 58.3078H167.023L162.935 53.1113V58.3078H161.48V53.1113L157.392 58.3078H155.763L160.094 52.7648L155.937 47.4643H157.565L161.514 52.4184V47.4643H162.969V52.4184L166.919 47.4643H168.547L164.355 52.7648L168.651 58.3078Z" fill="#0B1F1F"/>
<path d="M176.717 58.3078V50.2358L171.139 58.3078H169.961V47.4643H171.416V55.5363L176.994 47.4643H178.172V58.3078H176.717Z" fill="#0B1F1F"/>
<path d="M179.526 57.0253C179.873 57.0945 180.185 57.0599 180.462 56.956C180.739 56.852 180.947 56.6788 181.12 56.4363C181.293 56.1592 181.432 55.8127 181.536 55.3623C181.64 54.912 181.674 54.323 181.674 53.6648V47.5329H188.811V58.3764H187.356V48.9186H183.095V53.6994C183.095 54.7041 182.991 55.5009 182.817 56.1245C182.644 56.7481 182.367 57.2331 182.055 57.5796C181.744 57.926 181.362 58.1685 180.912 58.2724C180.462 58.3764 180.011 58.411 179.492 58.3764L179.526 57.0253Z" fill="#0B1F1F"/>
<path d="M190.575 52.9022C190.575 51.3433 191.129 50.0268 192.203 48.9182C193.277 47.8442 194.628 47.2899 196.187 47.2899C197.746 47.2899 199.063 47.8442 200.171 48.9182C201.245 49.9921 201.8 51.3433 201.8 52.9022C201.8 54.4612 201.245 55.7777 200.171 56.8863C199.098 57.9602 197.746 58.5145 196.187 58.5145C194.628 58.5145 193.277 57.9602 192.203 56.8863C191.129 55.8123 190.575 54.4612 190.575 52.9022ZM200.345 52.9022C200.345 51.6897 199.929 50.685 199.132 49.8882C198.335 49.0568 197.365 48.6757 196.153 48.6757C194.975 48.6757 193.97 49.0914 193.173 49.8882C192.377 50.7197 191.996 51.6897 191.996 52.9022C191.996 54.0801 192.377 55.0848 193.173 55.9163C193.97 56.7131 194.975 57.1288 196.153 57.1288C197.331 57.1288 198.335 56.7131 199.132 55.9163C199.929 55.0848 200.345 54.1148 200.345 52.9022Z" fill="#0B1F1F"/>
<path d="M210.254 58.3076V50.2356L204.676 58.3076H203.498V47.4641H204.953V55.5361L210.531 47.4641H211.709V58.3076H210.254ZM205.508 46.3209V45.143H209.665V46.3209H205.508Z" fill="#0B1F1F"/>
<path d="M225.74 58.3078H223.974L219.297 53.1113V58.3078H217.842V47.4643H219.297V52.3838L223.8 47.499H225.567L220.786 52.7648L225.74 58.3078Z" fill="#0B1F1F"/>
<path d="M225.532 52.9022C225.532 51.3433 226.087 50.0268 227.161 48.9182C228.235 47.8442 229.586 47.2899 231.145 47.2899C232.704 47.2899 234.02 47.8442 235.129 48.9182C236.203 49.9921 236.757 51.3433 236.757 52.9022C236.757 54.4612 236.203 55.7777 235.129 56.8863C234.055 57.9602 232.704 58.5145 231.145 58.5145C229.586 58.5145 228.235 57.9602 227.161 56.8863C226.087 55.8123 225.532 54.4612 225.532 52.9022ZM235.302 52.9022C235.302 51.6897 234.886 50.685 234.089 49.8882C233.292 49.0568 232.322 48.6757 231.11 48.6757C229.932 48.6757 228.927 49.0914 228.131 49.8882C227.334 50.7197 226.953 51.6897 226.953 52.9022C226.953 54.0801 227.334 55.0848 228.131 55.9163C228.927 56.7131 229.932 57.1288 231.11 57.1288C232.288 57.1288 233.292 56.7131 234.089 55.9163C234.886 55.0848 235.302 54.1148 235.302 52.9022Z" fill="#0B1F1F"/>
<path d="M248.606 47.4976V58.3411H247.151V49.888L243.617 55.7774H243.444L239.91 49.888V58.3411H238.455V47.4976H240.084L243.548 53.2138L246.978 47.4976H248.606Z" fill="#0B1F1F"/>
<path d="M258.754 47.4976V58.3411H257.299V48.8833H252.31V58.3411H250.855V47.4976H258.754Z" fill="#0B1F1F"/>
<path d="M260.142 57.0253C260.488 57.0945 260.8 57.0599 261.077 56.956C261.355 56.852 261.562 56.6788 261.736 56.4363C261.909 56.1592 262.047 55.8127 262.151 55.3623C262.221 54.912 262.29 54.323 262.29 53.6648V47.5329H269.427V58.3764H267.972V48.9186H263.71V53.6994C263.71 54.7041 263.606 55.5009 263.433 56.1245C263.26 56.7481 262.983 57.2331 262.671 57.5796C262.359 57.926 261.978 58.1685 261.528 58.2724C261.077 58.3764 260.627 58.411 260.107 58.3764L260.142 57.0253Z" fill="#0B1F1F"/>
<path d="M273.165 56.9568H278.188V58.3078H271.71V47.4643H278.084V48.8155H273.13V52.1413H277.703V53.4924H273.13L273.165 56.9568Z" fill="#0B1F1F"/>
<path d="M287.823 58.3078H286.056L281.379 53.1113V58.3078H279.924V47.4643H281.379V52.3838L285.883 47.499H287.649L282.869 52.7648L287.823 58.3078Z" fill="#0B1F1F"/>
<path d="M293.262 58.5145C291.599 58.5145 290.248 57.9602 289.208 56.8863C288.134 55.8123 287.615 54.4958 287.615 52.9022C287.615 51.3086 288.134 49.9921 289.208 48.9182C290.282 47.8442 291.633 47.2899 293.262 47.2899C293.747 47.2899 294.232 47.3592 294.682 47.4632C295.132 47.6017 295.583 47.7749 295.964 47.9828C296.38 48.2253 296.726 48.4678 297.072 48.8143C297.419 49.1261 297.696 49.5071 297.938 49.8882L296.691 50.6157C296.38 50.0268 295.929 49.5418 295.306 49.1953C294.682 48.8489 294.024 48.6757 293.262 48.6757C292.014 48.6757 290.975 49.0914 290.213 49.8882C289.416 50.685 289.035 51.6897 289.035 52.9022C289.035 54.1148 289.416 55.1194 290.213 55.9163C291.01 56.7131 292.014 57.1288 293.262 57.1288C293.989 57.1288 294.682 56.9556 295.306 56.6091C295.929 56.2627 296.38 55.7777 296.691 55.1887L297.938 55.9163C297.488 56.7131 296.83 57.3713 295.998 57.8563C295.202 58.272 294.266 58.5145 293.262 58.5145Z" fill="#0B1F1F"/>
<path d="M7.83048 47.4976V48.8486H4.64325V58.3064H3.18821V48.8486H0.000976562V47.4976H7.83048Z" fill="#0B1F1F"/>
<path d="M17.2889 47.4976L13.4434 53.9413V54.3224H15.5567V55.6042H13.4434V58.3064H11.9884V55.6042H9.87512V54.3224H11.9884V53.9413L8.17758 47.4976H9.77119L12.7159 52.5555L15.6606 47.4976H17.2889Z" fill="#0B1F1F"/>
<path d="M22.5211 47.499C23.5258 47.499 24.3572 47.8454 25.0154 48.5037C25.6737 49.1619 26.0201 49.9933 26.0201 50.9634C26.0201 51.9334 25.6737 52.7649 25.0154 53.4231C24.3572 54.0813 23.5258 54.4278 22.5211 54.4278H20.0267V58.3078H18.5717V47.4643H22.5211V47.499ZM22.4864 53.1113C23.0754 53.1113 23.5604 52.9034 23.9761 52.5223C24.3572 52.1066 24.5651 51.5869 24.5651 50.998C24.5651 50.6862 24.5304 50.4091 24.4265 50.1319C24.3226 49.8548 24.184 49.6469 23.9761 49.4737C23.8029 49.3005 23.5604 49.1273 23.3179 49.0233C23.0754 48.9194 22.7982 48.8501 22.4864 48.8501H19.9921V53.1113H22.4864Z" fill="#0B1F1F"/>
<path d="M26.8162 52.2784H27.9594V47.4976H34.0221V48.8486H29.3798V52.2784H32.4631V53.5602H29.3798V58.3064H27.9248V53.5602H26.7815L26.8162 52.2784Z" fill="#0B1F1F"/>
<path d="M35.444 58.3078V47.4643H36.899V51.3444H39.3934C40.398 51.3444 41.2295 51.6909 41.8877 52.3491C42.546 53.0074 42.8924 53.8388 42.8924 54.8088C42.8924 55.7788 42.546 56.6103 41.8877 57.3032C41.2295 57.9614 40.398 58.3078 39.3934 58.3078H35.444ZM36.899 56.9568H39.3934C39.7052 56.9568 39.9823 56.8875 40.2248 56.7835C40.4673 56.6796 40.7098 56.541 40.8831 56.3332C41.0563 56.1599 41.2295 55.9174 41.3334 55.6749C41.4374 55.3978 41.472 55.1206 41.472 54.8088C41.472 54.497 41.4374 54.2199 41.3334 53.9427C41.2295 53.6656 41.0909 53.4577 40.8831 53.2845C40.7098 53.1113 40.4673 52.9381 40.2248 52.8341C39.9823 52.7302 39.7052 52.6609 39.3934 52.6609H36.899V56.9568ZM43.9664 58.3078V47.4643H45.4214V58.3078H43.9664Z" fill="#0B1F1F"/>
<path d="M54.4277 47.4976H55.8827V58.3411H54.4277V53.4563H49.1618V58.3411H47.7068V47.4976H49.1618V52.1052H54.4277V47.4976Z" fill="#0B1F1F"/>
<path d="M70.1191 47.499L66.2736 53.9427V58.3078H64.8186V53.9081L61.0078 47.4643H62.6014L65.5461 52.5223L68.4909 47.4643H70.1191V47.499Z" fill="#0B1F1F"/>
<path d="M78.1201 58.3076V50.2356L72.5424 58.3076H71.3645V47.4641H72.8196V55.5361L78.3972 47.4641H79.5751V58.3076H78.1201ZM73.3739 46.3209V45.143H77.5311V46.3209H73.3739Z" fill="#0B1F1F"/>
<path d="M93.6067 58.3078H91.8398L87.1629 53.1113V58.3078H85.7079V47.4643H87.1629V52.3838L91.6666 47.499H93.4334L88.6872 52.7648L93.6067 58.3078Z" fill="#0B1F1F"/>
<path d="M96.3444 56.9568H101.368V58.3078H94.8894V47.4643H101.264V48.8155H96.3098V52.1413H100.883V53.4924H96.3098L96.3444 56.9568Z" fill="#0B1F1F"/>
<path d="M113.982 47.4976H115.437V58.3411H103.103V47.4976H104.558V56.9553H108.577V47.4976H110.032V56.9553H114.051L113.982 47.4976Z" fill="#0B1F1F"/>
<path d="M119.176 56.9568H124.199V58.3078H117.721V47.4643H124.095V48.8155H119.141V52.1413H123.714V53.4924H119.141L119.176 56.9568Z" fill="#0B1F1F"/>
<path d="M132.651 47.4976H134.107V58.3411H132.651V53.4563H127.386V58.3411H125.931V47.4976H127.386V52.1052H132.651V47.4976Z" fill="#0B1F1F"/>
<path d="M136.395 47.4976H137.85V58.3411H136.395V47.4976Z" fill="#0B1F1F"/>
<path d="M147.48 45.3838H146.025V60.4193H147.48V45.3838Z" fill="#0B1F1F"/>
</svg>
