<svg width="23" height="16" viewBox="0 0 23 16" fill="none" xmlns="http://www.w3.org/2000/svg">
<path d="M5.73597 7.02464L5.59311 7.09591C5.59311 7.09592 5.59311 7.09592 5.5931 7.09592C5.46363 7.16055 5.4111 7.31785 5.47568 7.44728L5.73597 7.02464ZM5.73597 7.02464C5.89159 7.13233 6.03384 7.25805 6.15967 7.39876L5.82707 7.56471C5.82706 7.56471 5.82706 7.56471 5.82706 7.56471C5.69755 7.6293 5.54031 7.57676 5.47568 7.44729L5.73597 7.02464ZM6.32498 7.31628C6.20315 7.17477 6.06615 7.04667 5.91654 6.93454L6.78442 6.50151C6.75364 6.66902 6.82204 6.8465 6.97256 6.94736M6.32498 7.31628L6.97256 6.94736M6.32498 7.31628L7.01173 6.97362M6.32498 7.31628L7.01173 6.97362M6.97256 6.94736L6.97255 6.94736L7.02229 6.87315L6.97256 6.94736ZM7.01173 6.97362L7.09712 7.03085L6.27664 7.54006M7.01173 6.97362L7.19569 6.88183L7.36646 6.99629M7.36646 6.99629L7.27449 7.04218L8.528 7.88232L8.61998 7.83643M7.36646 6.99629L8.61998 7.83643M7.36646 6.99629L9.15938 7.5673M8.61998 7.83643L8.79076 7.95088M8.61998 7.83643L9.15938 7.5673M8.79076 7.95088L8.6068 8.04267M8.79076 7.95088L9.33016 7.68176M8.79076 7.95088L9.17047 8.20537L9.12074 8.27959L9.17048 8.20538C9.21539 8.23547 9.26592 8.24978 9.31602 8.24978C9.33828 8.24978 9.36039 8.24696 9.38181 8.24145M8.6068 8.04267L8.52141 7.98544L6.93662 8.77615C6.93923 8.80826 6.94125 8.84054 6.94266 8.87297M8.6068 8.04267L9.07101 8.35379L9.07102 8.3538C9.08372 8.36231 9.09671 8.37007 9.10993 8.3771M8.6068 8.04267L6.94266 8.87297M6.94266 8.87297L6.76633 8.96095M6.94266 8.87297C6.9443 8.91041 6.94512 8.94805 6.94512 8.98588V9.4572M6.76633 8.96095C6.76566 8.89538 6.76232 8.83044 6.75642 8.76623M6.76633 8.96095L6.38759 9.14992L6.38757 9.14992C6.2972 9.195 6.2443 9.28525 6.24254 9.37967M6.76633 8.96095C6.76642 8.96925 6.76646 8.97756 6.76646 8.98588V9.54634M6.75642 8.76623L6.84197 8.72354C6.79364 8.26731 6.62073 7.84769 6.358 7.49947L6.27664 7.54006M6.75642 8.76623L6.30783 8.99004C6.28457 9.00165 6.26278 9.01503 6.24254 9.02995V8.98582C6.24254 8.51889 6.0696 8.09164 5.7844 7.76473C5.82594 7.75761 5.86715 7.74436 5.90681 7.72458L5.90682 7.72458L6.27664 7.54006M6.75642 8.76623C6.71434 8.30788 6.54191 7.88665 6.27664 7.54006M6.24254 9.37967L6.27011 9.50123M6.24254 9.37967V9.38935M6.24254 9.37967V9.38935M6.76646 9.54634L6.62155 9.61864M6.76646 9.54634V9.74601M6.76646 9.54634L6.94512 9.4572M6.62155 9.61864C6.58379 9.63748 6.54392 9.64633 6.50481 9.64633C6.4084 9.64633 6.31596 9.59305 6.27011 9.50123M6.62155 9.61864L6.62154 9.61865L6.66142 9.69858L6.62155 9.61864ZM6.27011 9.50123L6.24254 9.51498V9.73867M6.27011 9.50123L6.24254 9.73867M6.24254 9.73867C6.31839 9.79464 6.41061 9.82499 6.50481 9.82499C6.57108 9.82499 6.6383 9.80994 6.70129 9.77852L6.7013 9.77851L6.76646 9.74601M6.24254 9.73867V13.3339H6.76646V9.74601M6.76646 9.74601L10.0852 5.39438C9.93469 5.2935 9.86629 5.11597 9.89712 4.94843M6.94512 9.4572V9.55703L9.22583 8.4191C9.18612 8.41078 9.1471 8.39685 9.10993 8.3771M6.94512 9.4572L9.10993 8.3771M9.10993 8.3771L9.31602 8.27427L9.38181 8.24145M9.38181 8.24145C9.4172 8.23234 9.45071 8.21585 9.47988 8.19252M9.38181 8.24145L9.47988 8.19252M9.47988 8.19252L9.56119 8.15195L9.56122 8.15193L9.75155 8.05697M9.47988 8.19252C9.50028 8.17619 9.51856 8.15651 9.53386 8.13365L9.53389 8.13361C9.61443 8.01346 9.58232 7.85075 9.46213 7.77021L9.46212 7.7702L9.33016 7.68176M9.75155 8.05697C9.74518 8.09715 9.73317 8.13685 9.71526 8.17491L12.3384 6.8661C12.2987 6.85778 12.2597 6.84384 12.2226 6.82409M9.75155 8.05697L12.2226 6.82409M9.75155 8.05697L9.42873 7.53274M12.2226 6.82409L12.4287 6.72124L12.4943 6.68852M12.2226 6.82409C12.2094 6.81707 12.1964 6.80931 12.1837 6.80081L12.1837 6.80081L11.7194 6.48966M12.4943 6.68852C12.5298 6.67939 12.5635 6.66283 12.5928 6.63938M12.4943 6.68852C12.4729 6.694 12.4509 6.69679 12.4287 6.69679C12.3786 6.69679 12.3281 6.68249 12.2832 6.6524L12.2334 6.7266L12.2831 6.65239L11.9034 6.39787M12.4943 6.68852L12.5928 6.63938M12.5928 6.63938L12.6738 6.59895L12.6738 6.59895L12.8642 6.50394M12.5928 6.63938C12.6131 6.62309 12.6313 6.60347 12.6466 6.58071L12.6466 6.5807C12.7271 6.46049 12.695 6.29776 12.5748 6.21722L12.4428 6.12875M12.8642 6.50394C12.8579 6.5441 12.8459 6.5838 12.828 6.62185L15.3793 5.34893C15.3396 5.3406 15.3005 5.32667 15.2634 5.30692M12.8642 6.50394C12.8902 6.3396 12.8215 6.16752 12.6743 6.06881L12.6245 6.14301L12.6743 6.06881L12.6268 6.03696M12.8642 6.50394L15.2634 5.30692M15.2634 5.30692L15.4695 5.20408L15.5352 5.17128M15.2634 5.30692C15.2501 5.29989 15.2372 5.29213 15.2245 5.28363L15.2245 5.28362L14.7602 4.97249M15.5352 5.17128C15.5707 5.16216 15.6043 5.14564 15.6335 5.12225M15.5352 5.17128C15.5138 5.1768 15.4917 5.17961 15.4695 5.17961C15.4194 5.17961 15.3688 5.1653 15.3239 5.13521L15.2742 5.20941L15.3239 5.1352L14.9442 4.8807M15.5352 5.17128L15.6335 5.12225M15.6335 5.12225L15.7146 5.08176L15.6874 5.06351M15.6335 5.12225C15.6539 5.10595 15.6721 5.08631 15.6874 5.06351M15.6874 5.06351C15.6874 5.0635 15.6874 5.0635 15.6874 5.06349L15.7147 5.08175L15.9051 4.98675M15.6874 5.06351C15.7679 4.94331 15.7358 4.78057 15.6156 4.70003L15.4836 4.61156M15.9051 4.98675C15.8987 5.02691 15.8867 5.06661 15.8688 5.10466L18.42 3.8318C18.3803 3.82348 18.3412 3.80955 18.3041 3.78979M15.9051 4.98675C15.931 4.82242 15.8624 4.65033 15.7151 4.55162L15.6654 4.62583L15.7151 4.55162L15.6676 4.51978M15.9051 4.98675L18.3041 3.78979M18.3041 3.78979L18.5102 3.68696L18.5759 3.65418M18.3041 3.78979C18.2909 3.78277 18.2779 3.77501 18.2652 3.7665L18.3149 3.69229L18.2652 3.7665L17.801 3.45536M18.5759 3.65418C18.6114 3.64505 18.645 3.62852 18.6742 3.60511M18.5759 3.65418C18.5545 3.65968 18.5324 3.66248 18.5102 3.66248C18.4601 3.66248 18.4096 3.64818 18.3646 3.61808L17.9849 3.36358M18.5759 3.65418L18.6742 3.60511M18.6742 3.60511L18.7553 3.56464L18.7281 3.54639M18.6742 3.60511C18.6946 3.58881 18.7128 3.56918 18.7281 3.54639M18.7281 3.54639C18.7281 3.54638 18.7281 3.54637 18.7281 3.54637L18.7554 3.56463L18.9458 3.46963M18.7281 3.54639C18.8087 3.42618 18.7765 3.26345 18.6563 3.18291L18.5243 3.09443M18.9458 3.46963C18.9394 3.50979 18.9274 3.54949 18.9095 3.58754L20.5782 2.75497M18.9458 3.46963C18.9717 3.30529 18.9031 3.13321 18.7558 3.0345L18.7061 3.1087L18.7558 3.0345L18.7083 3.00265M18.9458 3.46963L20.5383 2.67505L20.5782 2.75497M20.5782 2.75497C21.0532 2.51785 21.2468 1.93853 21.0098 1.46375L20.5769 0.595956C20.4621 0.365789 20.2646 0.19417 20.0206 0.11263C19.7768 0.0311508 19.5158 0.049447 19.2856 0.164225L16.4882 1.55998C16.5293 1.56718 16.5699 1.58034 16.6087 1.59971M20.5782 2.75497L20.5383 2.67504C20.9692 2.45994 21.1448 1.93426 20.9299 1.50364L20.9299 1.50363L20.4969 0.635836L20.4969 0.635821C20.3927 0.426869 20.2138 0.271383 19.9923 0.197355C19.7709 0.123382 19.5344 0.139957 19.3255 0.244167M16.6087 1.59971L16.1586 1.82425L15.9786 1.91407M16.6087 1.59971L19.3255 0.244167M16.6087 1.59971C16.6253 1.60801 16.6415 1.61745 16.6574 1.62806L16.6076 1.70227L16.6574 1.62806L17.1131 1.93353M15.9786 1.91407C15.9862 1.87297 15.9997 1.83247 16.0195 1.79385L13.4475 3.07713C13.4887 3.08432 13.5292 3.09748 13.568 3.11686M15.9786 1.91407C15.9478 2.08163 16.0162 2.25918 16.1667 2.36006L16.2165 2.28586L16.1667 2.36006L16.2058 2.38625M15.9786 1.91407L13.568 3.11686M13.568 3.11686L13.1179 3.3414L12.9379 3.43123M13.568 3.11686C13.5846 3.12515 13.6008 3.13458 13.6166 3.14517L13.6166 3.14519L14.0724 3.45068M12.9379 3.43123C12.9455 3.39014 12.959 3.34964 12.9787 3.31102L10.4068 4.59431C10.4479 4.60151 10.4885 4.61468 10.5272 4.63405M12.9379 3.43123C12.9071 3.59878 12.9755 3.77631 13.126 3.87718L13.1757 3.80298L13.126 3.87719L13.1651 3.90339M12.9379 3.43123L10.5272 4.63405M10.5272 4.63405L10.0772 4.85859L10.0772 4.85859L9.89712 4.94843M10.5272 4.63405C10.5438 4.64235 10.56 4.65178 10.5758 4.66238L11.0316 4.96788M9.89712 4.94843C9.90468 4.90734 9.91821 4.86684 9.93796 4.82822L7.29422 6.14731C7.33534 6.15453 7.37589 6.1677 7.4146 6.18708L9.89712 4.94843ZM9.15938 7.5673L9.33016 7.68176M9.15938 7.5673L9.56158 7.62179M9.15938 7.5673L9.25136 7.52141M9.15938 7.5673L9.25136 7.52141M9.33016 7.68176L9.51412 7.58997M9.51412 7.58997L9.56158 7.62179M9.51412 7.58997L9.42873 7.53274M9.51412 7.58997L11.7194 6.48966M9.56158 7.62179L9.51186 7.696L9.56159 7.62179L9.56158 7.62179ZM9.42873 7.53274L9.33675 7.57864L9.25136 7.52141M9.42873 7.53274L9.25136 7.52141M11.7194 6.48966L11.6341 6.43243M11.7194 6.48966L11.9034 6.39787M11.6341 6.43243L10.3083 5.3288M11.6341 6.43243L11.726 6.38654L11.6406 6.32931M11.6341 6.43243L11.6406 6.32931M11.9034 6.39787L11.7326 6.28341M11.9034 6.39787L12.4428 6.12875M12.4428 6.12875L12.6268 6.03696M12.4428 6.12875L12.272 6.01429M12.6268 6.03696L14.7602 4.97249M12.6268 6.03696L12.5414 5.97973L14.6749 4.91526L14.7602 4.97249M14.7602 4.97249L14.9442 4.8807M14.9442 4.8807L15.4836 4.61156M14.9442 4.8807L14.7734 4.76625M15.4836 4.61156L15.6676 4.51978M15.4836 4.61156L15.3129 4.4971M15.6676 4.51978L17.801 3.45536M15.6676 4.51978L15.5822 4.46255L17.7156 3.39813L17.801 3.45536M17.801 3.45536L17.9849 3.36358M17.9849 3.36358L18.5243 3.09443M17.9849 3.36358L17.8141 3.24912M18.5243 3.09443L18.7083 3.00265M18.5243 3.09443L18.3536 2.97998M18.7083 3.00265L18.6229 2.94542L20.2645 2.12638C20.3928 2.06234 20.4452 1.90578 20.3812 1.77753M18.7083 3.00265L20.3044 2.20631L20.2647 2.12669L20.3044 2.20631C20.4768 2.12027 20.5472 1.9101 20.4611 1.73765L20.3812 1.77753M19.3255 0.244167L19.3255 0.244158L19.2856 0.164231L19.3255 0.244167ZM17.1131 1.93353L16.9292 2.02531M17.1131 1.93353L19.5593 0.713012L19.5594 0.712983C19.6427 0.671453 19.7378 0.664799 19.8262 0.69431C19.9146 0.723848 19.9865 0.786356 20.0281 0.869729L19.9482 0.909615M17.1131 1.93353L17.1985 1.99076L19.5992 0.792945C19.6614 0.761964 19.732 0.757024 19.7979 0.77904C19.8638 0.801057 19.9171 0.847408 19.9482 0.909615M16.9292 2.02531L16.5579 1.77648C16.4377 1.69592 16.275 1.72805 16.1944 1.84823L16.1944 1.84825C16.1139 1.96838 16.146 2.13111 16.2662 2.21165L16.3897 2.29446M16.9292 2.02531L17.0999 2.13977M16.9292 2.02531L16.3897 2.29446M16.3897 2.29446L16.2058 2.38625M16.3897 2.29446L16.5605 2.40892M16.2058 2.38625L16.2912 2.44348L14.1578 3.5079L14.0724 3.45068M16.2058 2.38625L14.0724 3.45068M14.0724 3.45068L13.8885 3.54246M13.8885 3.54246L13.5172 3.29361L13.5669 3.21939L13.5172 3.2936C13.3969 3.21305 13.2342 3.24522 13.1537 3.36537C13.0732 3.4855 13.1053 3.64823 13.2255 3.72878L13.3491 3.81161M13.8885 3.54246L14.0593 3.65692M13.8885 3.54246L13.3491 3.81161M13.3491 3.81161L13.1651 3.90339M13.3491 3.81161L13.5198 3.92607M13.1651 3.90339L11.0316 4.96788M13.1651 3.90339L13.2505 3.96062L11.117 5.02511L11.0316 4.96788M11.0316 4.96788L10.8477 5.05967M10.8477 5.05967L10.4763 4.81078L10.5261 4.73658L10.4763 4.81078C10.3562 4.73024 10.1935 4.76235 10.1129 4.88254L10.1129 4.88256C10.0324 5.0027 10.0645 5.16542 10.1847 5.24596L10.1847 5.24596L10.3083 5.3288M10.8477 5.05967L11.0185 5.17413M10.8477 5.05967L11.0185 5.17413M10.3083 5.3288L10.1243 5.42058L10.2097 5.47781L10.3017 5.43192L10.3871 5.48915L10.4791 5.44326L10.3083 5.3288ZM11.0185 5.17413L12.272 6.01429M11.0185 5.17413L11.1104 5.12823L12.364 5.9684L12.272 6.01429M12.272 6.01429L11.7326 6.28341M11.7326 6.28341L11.6406 6.32931M11.7326 6.28341L11.6406 6.32931M13.5198 3.92607L13.4279 3.97196L14.6814 4.81214L14.7734 4.76625M13.5198 3.92607L14.7734 4.76625M13.5198 3.92607L14.0593 3.65692M14.7734 4.76625L15.3129 4.4971M15.3129 4.4971L15.4048 4.45121L14.1512 3.61103L14.0593 3.65692M15.3129 4.4971L14.0593 3.65692M16.5605 2.40892L16.4685 2.45481L17.7222 3.29501L17.8141 3.24912M16.5605 2.40892L17.8141 3.24912M16.5605 2.40892L17.0999 2.13977M17.8141 3.24912L18.3536 2.97998M18.3536 2.97998L18.4455 2.93409L17.1919 2.09388L17.0999 2.13977M18.3536 2.97998L17.0999 2.13977M19.9482 0.909615L20.3812 1.77753M19.9482 0.909615L20.0281 0.869735L20.4611 1.73762L20.3812 1.77753M6.24254 9.38935C6.24324 9.42706 6.25214 9.46521 6.2701 9.50121L6.24254 9.38935ZM2.52362 8.95978L2.52351 13.3339H1.9996L1.99971 8.95746L1.9997 8.95646L1.99973 8.95646L1.99976 8.95406C2.00793 8.32943 2.25572 7.74241 2.69776 7.30055L2.69778 7.30052C3.14788 6.85025 3.74613 6.60241 4.38299 6.60241C4.81033 6.60241 5.21178 6.71548 5.55899 6.91328L5.51334 6.93605L5.51333 6.93606C5.35205 7.01655 5.26176 7.18254 5.26987 7.35167C5.00612 7.20797 4.70393 7.12627 4.38299 7.12627C3.88641 7.12627 3.4192 7.3198 3.06823 7.6709C2.72407 8.01494 2.53061 8.47234 2.52363 8.9585H2.52362V8.95978ZM1.99959 13.5125H2.52351L2.5235 13.7745C2.5235 13.9192 2.40621 14.0365 2.26154 14.0365C2.11688 14.0365 1.99958 13.9192 1.99958 13.7745L1.99959 13.5125ZM1.82092 13.7745C1.82092 13.9186 1.89015 14.0466 1.99718 14.127V14.8517H1.47326V13.7745C1.47326 13.6298 1.59056 13.5125 1.73522 13.5125H1.82093L1.82092 13.7745ZM1.47326 15.0304H1.99718V15.2924C1.99718 15.437 1.87989 15.5543 1.73522 15.5543C1.59056 15.5543 1.47326 15.437 1.47326 15.2924V15.0304ZM2.08954 15.5543C2.14377 15.4811 2.17584 15.3905 2.17584 15.2924V15.0304H6.59021V15.2924C6.59021 15.3905 6.62228 15.4811 6.6765 15.5543H2.08954ZM1.2946 15.2924C1.2946 15.3905 1.32667 15.4811 1.3809 15.5543H0.357635C0.21297 15.5543 0.095678 15.437 0.095678 15.2924C0.095678 15.1477 0.21297 15.0304 0.357635 15.0304H1.2946V15.2924ZM7.46314 6.21536C7.46314 6.21536 7.46313 6.21536 7.46313 6.21536L7.4134 6.28956L7.46314 6.21536ZM8.00443 6.57815L7.91904 6.52092L7.73508 6.6127L7.90586 6.72716L7.99784 6.68127L7.91245 6.62404L8.00443 6.57815ZM6.82522 6.38132L6.87918 6.3544L6.82522 6.38132ZM2.70217 13.5125H6.06388V13.7745C6.06388 13.8726 6.09595 13.9632 6.15018 14.0365H2.61586C2.67009 13.9632 2.70216 13.8726 2.70216 13.7745L2.70217 13.5125ZM6.5045 14.0365C6.35984 14.0365 6.24254 13.9192 6.24254 13.7745V13.5125H6.76646V13.7746C6.76646 13.9192 6.64918 14.0365 6.5045 14.0365ZM6.76887 14.8517V14.127C6.87589 14.0466 6.94512 13.9187 6.94512 13.7746V13.5125H7.03082C7.17549 13.5125 7.29278 13.6298 7.29278 13.7745V14.8517H6.76887ZM6.76887 15.2924V15.0304H7.29278V15.2924C7.29278 15.437 7.17549 15.5543 7.03082 15.5543C6.88616 15.5543 6.76887 15.437 6.76887 15.2924ZM7.47144 15.2924V15.0304H18.0927V15.2924C18.0927 15.3905 18.1248 15.4811 18.179 15.5543H7.38514C7.43937 15.4811 7.47144 15.3905 7.47144 15.2924ZM18.2714 15.2924V15.0304H18.7953V15.2924C18.7953 15.437 18.678 15.5543 18.5334 15.5543C18.3887 15.5543 18.2714 15.437 18.2714 15.2924ZM18.7953 14.8517H18.2714V8.69107C18.2714 8.5464 18.3887 8.42911 18.5334 8.42911H20.4354C20.58 8.42911 20.6973 8.5464 20.6973 8.69107V14.8517H20.1734V9.04236V8.95302H20.0841H18.8847H18.7953V9.04236V14.8517ZM18.974 15.2924V15.0304H19.9948V15.2924C19.9948 15.3905 20.0268 15.4811 20.0811 15.5543H18.8877C18.9419 15.4811 18.974 15.3905 18.974 15.2924ZM20.1734 15.2924V15.0304H20.6973V15.2924C20.6973 15.437 20.5801 15.5543 20.4354 15.5543C20.2907 15.5543 20.1734 15.437 20.1734 15.2924ZM20.876 15.2924V15.0304H22.1375C22.2821 15.0304 22.3994 15.1477 22.3994 15.2924C22.3994 15.437 22.2821 15.5543 22.1375 15.5543H20.7897C20.8439 15.4811 20.876 15.3905 20.876 15.2924ZM4.38305 10.104C3.86155 10.104 3.43718 9.67962 3.43718 9.15817C3.43718 8.63667 3.8616 8.2123 4.38305 8.2123C4.9045 8.2123 5.32892 8.63673 5.32892 9.15817C5.32887 9.67962 4.90449 10.104 4.38305 10.104ZM4.38305 8.73615C4.15026 8.73615 3.9611 8.9254 3.9611 9.15811C3.9611 9.39091 4.15034 9.58007 4.38305 9.58007C4.61585 9.58007 4.80501 9.39082 4.80501 9.15811C4.80501 8.92539 4.61578 8.73615 4.38305 8.73615Z" fill="#1C3B39" stroke="#1C3B39" stroke-width="0.178661"/>
</svg>
