<svg width="27" height="24" viewBox="0 0 27 24" fill="none" xmlns="http://www.w3.org/2000/svg">
<mask id="path-1-inside-1_105_208" fill="white">
<path fill-rule="evenodd" clip-rule="evenodd" d="M0.464662 0.66765C0.31419 0.742217 0.206495 0.850513 0.134088 1.00008L0.0766602 1.11868L0.0772615 11.8454L0.0778628 22.572L0.133624 22.695C0.200154 22.8418 0.271303 22.9228 0.418331 23.0194L0.527666 23.0912L0.746335 23.0913L0.965004 23.0914L1.04701 23.0386C1.18397 22.9504 1.28134 22.8509 1.34336 22.736L1.40234 22.6267L1.41016 21.2804L1.41798 19.934L3.71986 19.941L6.02173 19.948L6.0354 21.2873L6.04907 22.6267L6.09531 22.7224C6.15583 22.8476 6.24245 22.9397 6.37707 23.022L6.4864 23.0889L6.69343 23.0901L6.90045 23.0914L7.03166 23.0094L7.16286 22.9274L7.24109 22.818L7.31932 22.7087L7.34703 22.5615L7.37475 22.4142V12.1815V1.94878H9.61625H11.8577L11.8508 4.75513L11.8438 7.56147L11.6525 7.62114C10.7872 7.8909 10.0835 8.58752 9.7973 9.45753C9.70248 9.74582 9.67105 9.96706 9.67192 10.3402L9.67269 10.6546L9.70951 10.861C9.83891 11.5863 10.2813 12.2541 10.9225 12.692C11.2227 12.897 11.4476 12.9911 11.9805 13.1351L12.0898 13.1646L12.4998 13.1656L12.9098 13.1665L13.1835 13.0939C13.5191 13.0049 13.822 12.8677 14.1201 12.6696L14.3463 12.5193L14.5524 12.3002C14.9754 11.8505 15.2093 11.3894 15.3155 10.7952L15.3636 10.5259L15.3485 10.2349C15.3132 9.55719 15.09 8.98425 14.6643 8.47814L14.5054 8.28926L14.2645 8.10522C13.9274 7.84774 13.6763 7.7138 13.3335 7.60871L13.1832 7.5626L13.1762 4.7557L13.1692 1.94878H15.6977H18.2262V4.75945V7.57014L18.0886 7.60187C18.013 7.61934 17.8962 7.65865 17.8291 7.68923C17.762 7.71979 17.6771 7.75617 17.6405 7.77008C17.6039 7.784 17.4655 7.866 17.3329 7.95229L17.0919 8.10921L16.8717 8.32955C16.2205 8.98116 15.9494 9.79843 16.0685 10.7509L16.0974 10.9826L16.1818 11.2265C16.5108 12.1778 17.1964 12.8154 18.1852 13.0897L18.4585 13.1655L18.8686 13.1665L19.2786 13.1676L19.5656 13.0912C20.1565 12.9341 20.6697 12.6188 21.0181 12.1989C21.3096 11.8476 21.404 11.6904 21.5499 11.3132L21.644 11.0698L21.6844 10.8212C21.7353 10.5076 21.7355 10.2076 21.6852 9.87396C21.6364 9.55024 21.5927 9.41593 21.4235 9.0692L21.29 8.79586L21.1151 8.57539C20.8663 8.26193 20.3776 7.86657 20.1162 7.76716C20.0769 7.75221 20.0054 7.72129 19.9572 7.69847C19.9091 7.67562 19.7982 7.63571 19.7108 7.60977L19.5519 7.5626L19.5449 4.7557L19.538 1.94878H21.7795H24.021V3.06678V4.18478L23.6588 4.19429L23.2966 4.20381L23.1354 4.28548L22.9742 4.36718L22.8839 4.50415L22.7936 4.64115L22.7759 4.7785L22.7582 4.91588L22.789 5.03019C22.8059 5.09308 22.8595 5.1973 22.908 5.26184L22.9963 5.37915L23.1445 5.45432L23.2928 5.52949H23.6568H24.021V6.66384V7.79818H23.6893H23.3576L23.2587 7.82784C23.2042 7.84413 23.1116 7.89027 23.0527 7.93034L22.9457 8.00319L22.8615 8.13985L22.7773 8.27652L22.7784 8.47373L22.7795 8.67097L22.8877 8.82634L22.9959 8.9817L23.1326 9.0528L23.2693 9.12387L23.6451 9.13332L24.021 9.14278V10.2719V11.4011L23.6314 11.4105L23.2419 11.4199L23.1202 11.4882L22.9985 11.5566L22.9091 11.6739C22.86 11.7384 22.8059 11.8428 22.7889 11.9059L22.758 12.0207L22.7742 12.1394C22.8061 12.3717 22.9699 12.5996 23.163 12.6803L23.2539 12.7182H23.6374H24.021V13.8526V14.9869L23.7134 14.9872L23.4059 14.9875L23.2703 15.0286C23.0842 15.0851 22.9679 15.1694 22.8722 15.3172L22.7912 15.4424L22.774 15.5674L22.7569 15.6924L22.7904 15.8322L22.824 15.972L22.9646 16.1193L23.1053 16.2667L23.2146 16.2963L23.3239 16.326L23.6724 16.3261L24.021 16.3263V17.4606V18.595H23.6973H23.3736L23.2451 18.6337C23.0746 18.685 22.9511 18.783 22.8559 18.9424L22.7778 19.0733L22.7775 19.2647L22.7773 19.456L22.853 19.5849C22.9454 19.742 23.0744 19.8443 23.2451 19.8956L23.3736 19.9343H23.6963H24.019L24.0268 21.2805L24.0346 22.6267L24.0936 22.736C24.1556 22.8509 24.253 22.9504 24.39 23.0386L24.472 23.0914L24.6906 23.0913L24.9093 23.0912L25.0186 23.0194C25.1657 22.9228 25.2368 22.8418 25.3033 22.695L25.3591 22.572L25.3597 21.2532L25.3603 19.9343H25.6833H26.0064L26.1484 19.8922L26.2904 19.85L26.39 19.7625L26.4896 19.6751L26.5534 19.5382L26.6171 19.4013L26.6174 19.265L26.6176 19.1288L26.5438 18.9829C26.5033 18.9027 26.4296 18.8016 26.3802 18.7582L26.2904 18.6793L26.1484 18.6372L26.0064 18.595H25.6833H25.3603V17.4606V16.3263L25.7225 16.3251L26.0846 16.3239L26.1848 16.2881C26.3204 16.2397 26.4309 16.1456 26.5252 15.9983L26.604 15.8753L26.6022 15.6703L26.6004 15.4653L26.5266 15.3389L26.4528 15.2125L26.3466 15.1388C26.2881 15.0983 26.1818 15.0476 26.1103 15.0261L25.9803 14.9869H25.6703H25.3603V13.8545V12.7221L25.7814 12.7133L26.2025 12.7046L26.3212 12.6186L26.44 12.5326L26.5201 12.4025L26.6002 12.2724L26.6124 12.1256L26.6245 11.9788L26.5767 11.8537C26.5504 11.7848 26.4905 11.6848 26.4436 11.6313L26.3584 11.5342L26.2215 11.4705L26.0846 11.4068L25.7225 11.4065L25.3603 11.4062V10.2719V9.13753H25.6762H25.9921L26.1067 9.10837C26.1697 9.09235 26.2702 9.0458 26.33 9.00496L26.4388 8.93073L26.5214 8.79698L26.604 8.66324L26.6034 8.46988L26.6029 8.27652L26.525 8.14562C26.4342 7.99285 26.319 7.89776 26.1545 7.83973L26.0368 7.79818H25.6985H25.3603V6.66384V5.52949L25.7225 5.52922L26.0846 5.52894L26.2215 5.46523L26.3584 5.40149L26.4436 5.30437C26.4905 5.25093 26.5506 5.15048 26.5771 5.08114L26.6252 4.95502L26.61 4.80703L26.5947 4.65905L26.5015 4.51342L26.4084 4.36781L26.2465 4.28581L26.0846 4.20381L25.7225 4.19429L25.3603 4.18478V2.66115V1.13749L25.2773 0.9713L25.1942 0.805111L25.0524 0.714118L24.9106 0.623096L12.7464 0.616236L0.582333 0.609375L0.464662 0.66765ZM6.0354 3.06946V4.19014H3.7257H1.41601V3.06946V1.94878H3.7257H6.0354V3.06946ZM6.02887 6.67067L6.036 7.79818H3.72601H1.41601V6.66367V5.52919L3.71887 5.53616L6.02173 5.54316L6.02887 6.67067ZM12.7277 8.83727L12.9283 8.86329L13.0968 8.93753C13.5436 9.13447 13.8573 9.50684 13.9782 9.98365L14.0229 10.1601L14.0111 10.4073L13.9994 10.6546L13.9347 10.8322C13.8496 11.0661 13.6996 11.2859 13.5095 11.4553L13.3552 11.5929L13.1479 11.6927L12.9405 11.7925L12.727 11.8236L12.5135 11.8547L12.288 11.8223L12.0625 11.7899L11.8337 11.6771L11.6049 11.5643L11.4373 11.3943L11.2698 11.2243L11.1681 11.0215L11.0663 10.8186L11.0188 10.5636L10.9714 10.3086L11.0189 10.0716L11.0665 9.83454L11.1537 9.65687L11.2408 9.4792L11.4502 9.26729L11.6597 9.05537L11.8703 8.9594L12.0808 8.86343L12.263 8.83995C12.5115 8.80789 12.5019 8.80795 12.7277 8.83727ZM19.0958 8.83785L19.3216 8.86616L19.519 8.95986L19.7165 9.05359L19.8745 9.19447C19.9615 9.27196 20.0794 9.40461 20.1366 9.48926L20.2407 9.64321L20.3179 9.87554L20.3951 10.1079L20.3933 10.3539L20.3915 10.5999L20.3227 10.7954C20.1146 11.3872 19.615 11.7827 19.0112 11.8338L18.8124 11.8506L18.6176 11.8177L18.4229 11.7849L18.2559 11.7059C17.8351 11.5069 17.5543 11.1792 17.4347 10.748L17.3789 10.5463V10.3265V10.1068L17.4347 9.90512C17.5086 9.63861 17.5982 9.49186 17.8295 9.25821L18.0212 9.06452L18.2347 8.96405L18.4483 8.86357L18.6311 8.84001C18.7316 8.82705 18.8265 8.81489 18.8419 8.81297C18.8574 8.81109 18.9716 8.82227 19.0958 8.83785ZM6.02887 10.265L6.02173 11.3926L3.71887 11.3996L1.41601 11.4065V10.272V9.13753H3.72601H6.036L6.02887 10.265ZM6.02887 13.8594L6.036 14.9869H3.72601H1.41601V13.8524V12.7179L3.71887 12.7249L6.02173 12.7319L6.02887 13.8594ZM6.02887 17.4538L6.02173 18.5813L3.71887 18.5883L1.41601 18.5953V17.4608V16.3263H3.72601H6.036L6.02887 17.4538Z"/>
</mask>
<path fill-rule="evenodd" clip-rule="evenodd" d="M0.464662 0.66765C0.31419 0.742217 0.206495 0.850513 0.134088 1.00008L0.0766602 1.11868L0.0772615 11.8454L0.0778628 22.572L0.133624 22.695C0.200154 22.8418 0.271303 22.9228 0.418331 23.0194L0.527666 23.0912L0.746335 23.0913L0.965004 23.0914L1.04701 23.0386C1.18397 22.9504 1.28134 22.8509 1.34336 22.736L1.40234 22.6267L1.41016 21.2804L1.41798 19.934L3.71986 19.941L6.02173 19.948L6.0354 21.2873L6.04907 22.6267L6.09531 22.7224C6.15583 22.8476 6.24245 22.9397 6.37707 23.022L6.4864 23.0889L6.69343 23.0901L6.90045 23.0914L7.03166 23.0094L7.16286 22.9274L7.24109 22.818L7.31932 22.7087L7.34703 22.5615L7.37475 22.4142V12.1815V1.94878H9.61625H11.8577L11.8508 4.75513L11.8438 7.56147L11.6525 7.62114C10.7872 7.8909 10.0835 8.58752 9.7973 9.45753C9.70248 9.74582 9.67105 9.96706 9.67192 10.3402L9.67269 10.6546L9.70951 10.861C9.83891 11.5863 10.2813 12.2541 10.9225 12.692C11.2227 12.897 11.4476 12.9911 11.9805 13.1351L12.0898 13.1646L12.4998 13.1656L12.9098 13.1665L13.1835 13.0939C13.5191 13.0049 13.822 12.8677 14.1201 12.6696L14.3463 12.5193L14.5524 12.3002C14.9754 11.8505 15.2093 11.3894 15.3155 10.7952L15.3636 10.5259L15.3485 10.2349C15.3132 9.55719 15.09 8.98425 14.6643 8.47814L14.5054 8.28926L14.2645 8.10522C13.9274 7.84774 13.6763 7.7138 13.3335 7.60871L13.1832 7.5626L13.1762 4.7557L13.1692 1.94878H15.6977H18.2262V4.75945V7.57014L18.0886 7.60187C18.013 7.61934 17.8962 7.65865 17.8291 7.68923C17.762 7.71979 17.6771 7.75617 17.6405 7.77008C17.6039 7.784 17.4655 7.866 17.3329 7.95229L17.0919 8.10921L16.8717 8.32955C16.2205 8.98116 15.9494 9.79843 16.0685 10.7509L16.0974 10.9826L16.1818 11.2265C16.5108 12.1778 17.1964 12.8154 18.1852 13.0897L18.4585 13.1655L18.8686 13.1665L19.2786 13.1676L19.5656 13.0912C20.1565 12.9341 20.6697 12.6188 21.0181 12.1989C21.3096 11.8476 21.404 11.6904 21.5499 11.3132L21.644 11.0698L21.6844 10.8212C21.7353 10.5076 21.7355 10.2076 21.6852 9.87396C21.6364 9.55024 21.5927 9.41593 21.4235 9.0692L21.29 8.79586L21.1151 8.57539C20.8663 8.26193 20.3776 7.86657 20.1162 7.76716C20.0769 7.75221 20.0054 7.72129 19.9572 7.69847C19.9091 7.67562 19.7982 7.63571 19.7108 7.60977L19.5519 7.5626L19.5449 4.7557L19.538 1.94878H21.7795H24.021V3.06678V4.18478L23.6588 4.19429L23.2966 4.20381L23.1354 4.28548L22.9742 4.36718L22.8839 4.50415L22.7936 4.64115L22.7759 4.7785L22.7582 4.91588L22.789 5.03019C22.8059 5.09308 22.8595 5.1973 22.908 5.26184L22.9963 5.37915L23.1445 5.45432L23.2928 5.52949H23.6568H24.021V6.66384V7.79818H23.6893H23.3576L23.2587 7.82784C23.2042 7.84413 23.1116 7.89027 23.0527 7.93034L22.9457 8.00319L22.8615 8.13985L22.7773 8.27652L22.7784 8.47373L22.7795 8.67097L22.8877 8.82634L22.9959 8.9817L23.1326 9.0528L23.2693 9.12387L23.6451 9.13332L24.021 9.14278V10.2719V11.4011L23.6314 11.4105L23.2419 11.4199L23.1202 11.4882L22.9985 11.5566L22.9091 11.6739C22.86 11.7384 22.8059 11.8428 22.7889 11.9059L22.758 12.0207L22.7742 12.1394C22.8061 12.3717 22.9699 12.5996 23.163 12.6803L23.2539 12.7182H23.6374H24.021V13.8526V14.9869L23.7134 14.9872L23.4059 14.9875L23.2703 15.0286C23.0842 15.0851 22.9679 15.1694 22.8722 15.3172L22.7912 15.4424L22.774 15.5674L22.7569 15.6924L22.7904 15.8322L22.824 15.972L22.9646 16.1193L23.1053 16.2667L23.2146 16.2963L23.3239 16.326L23.6724 16.3261L24.021 16.3263V17.4606V18.595H23.6973H23.3736L23.2451 18.6337C23.0746 18.685 22.9511 18.783 22.8559 18.9424L22.7778 19.0733L22.7775 19.2647L22.7773 19.456L22.853 19.5849C22.9454 19.742 23.0744 19.8443 23.2451 19.8956L23.3736 19.9343H23.6963H24.019L24.0268 21.2805L24.0346 22.6267L24.0936 22.736C24.1556 22.8509 24.253 22.9504 24.39 23.0386L24.472 23.0914L24.6906 23.0913L24.9093 23.0912L25.0186 23.0194C25.1657 22.9228 25.2368 22.8418 25.3033 22.695L25.3591 22.572L25.3597 21.2532L25.3603 19.9343H25.6833H26.0064L26.1484 19.8922L26.2904 19.85L26.39 19.7625L26.4896 19.6751L26.5534 19.5382L26.6171 19.4013L26.6174 19.265L26.6176 19.1288L26.5438 18.9829C26.5033 18.9027 26.4296 18.8016 26.3802 18.7582L26.2904 18.6793L26.1484 18.6372L26.0064 18.595H25.6833H25.3603V17.4606V16.3263L25.7225 16.3251L26.0846 16.3239L26.1848 16.2881C26.3204 16.2397 26.4309 16.1456 26.5252 15.9983L26.604 15.8753L26.6022 15.6703L26.6004 15.4653L26.5266 15.3389L26.4528 15.2125L26.3466 15.1388C26.2881 15.0983 26.1818 15.0476 26.1103 15.0261L25.9803 14.9869H25.6703H25.3603V13.8545V12.7221L25.7814 12.7133L26.2025 12.7046L26.3212 12.6186L26.44 12.5326L26.5201 12.4025L26.6002 12.2724L26.6124 12.1256L26.6245 11.9788L26.5767 11.8537C26.5504 11.7848 26.4905 11.6848 26.4436 11.6313L26.3584 11.5342L26.2215 11.4705L26.0846 11.4068L25.7225 11.4065L25.3603 11.4062V10.2719V9.13753H25.6762H25.9921L26.1067 9.10837C26.1697 9.09235 26.2702 9.0458 26.33 9.00496L26.4388 8.93073L26.5214 8.79698L26.604 8.66324L26.6034 8.46988L26.6029 8.27652L26.525 8.14562C26.4342 7.99285 26.319 7.89776 26.1545 7.83973L26.0368 7.79818H25.6985H25.3603V6.66384V5.52949L25.7225 5.52922L26.0846 5.52894L26.2215 5.46523L26.3584 5.40149L26.4436 5.30437C26.4905 5.25093 26.5506 5.15048 26.5771 5.08114L26.6252 4.95502L26.61 4.80703L26.5947 4.65905L26.5015 4.51342L26.4084 4.36781L26.2465 4.28581L26.0846 4.20381L25.7225 4.19429L25.3603 4.18478V2.66115V1.13749L25.2773 0.9713L25.1942 0.805111L25.0524 0.714118L24.9106 0.623096L12.7464 0.616236L0.582333 0.609375L0.464662 0.66765ZM6.0354 3.06946V4.19014H3.7257H1.41601V3.06946V1.94878H3.7257H6.0354V3.06946ZM6.02887 6.67067L6.036 7.79818H3.72601H1.41601V6.66367V5.52919L3.71887 5.53616L6.02173 5.54316L6.02887 6.67067ZM12.7277 8.83727L12.9283 8.86329L13.0968 8.93753C13.5436 9.13447 13.8573 9.50684 13.9782 9.98365L14.0229 10.1601L14.0111 10.4073L13.9994 10.6546L13.9347 10.8322C13.8496 11.0661 13.6996 11.2859 13.5095 11.4553L13.3552 11.5929L13.1479 11.6927L12.9405 11.7925L12.727 11.8236L12.5135 11.8547L12.288 11.8223L12.0625 11.7899L11.8337 11.6771L11.6049 11.5643L11.4373 11.3943L11.2698 11.2243L11.1681 11.0215L11.0663 10.8186L11.0188 10.5636L10.9714 10.3086L11.0189 10.0716L11.0665 9.83454L11.1537 9.65687L11.2408 9.4792L11.4502 9.26729L11.6597 9.05537L11.8703 8.9594L12.0808 8.86343L12.263 8.83995C12.5115 8.80789 12.5019 8.80795 12.7277 8.83727ZM19.0958 8.83785L19.3216 8.86616L19.519 8.95986L19.7165 9.05359L19.8745 9.19447C19.9615 9.27196 20.0794 9.40461 20.1366 9.48926L20.2407 9.64321L20.3179 9.87554L20.3951 10.1079L20.3933 10.3539L20.3915 10.5999L20.3227 10.7954C20.1146 11.3872 19.615 11.7827 19.0112 11.8338L18.8124 11.8506L18.6176 11.8177L18.4229 11.7849L18.2559 11.7059C17.8351 11.5069 17.5543 11.1792 17.4347 10.748L17.3789 10.5463V10.3265V10.1068L17.4347 9.90512C17.5086 9.63861 17.5982 9.49186 17.8295 9.25821L18.0212 9.06452L18.2347 8.96405L18.4483 8.86357L18.6311 8.84001C18.7316 8.82705 18.8265 8.81489 18.8419 8.81297C18.8574 8.81109 18.9716 8.82227 19.0958 8.83785ZM6.02887 10.265L6.02173 11.3926L3.71887 11.3996L1.41601 11.4065V10.272V9.13753H3.72601H6.036L6.02887 10.265ZM6.02887 13.8594L6.036 14.9869H3.72601H1.41601V13.8524V12.7179L3.71887 12.7249L6.02173 12.7319L6.02887 13.8594ZM6.02887 17.4538L6.02173 18.5813L3.71887 18.5883L1.41601 18.5953V17.4608V16.3263H3.72601H6.036L6.02887 17.4538Z" fill="#1C3B39" stroke="#1C3B39" stroke-width="2" mask="url(#path-1-inside-1_105_208)"/>
</svg>
