<svg width="27" height="23" viewBox="0 0 27 23" fill="none" xmlns="http://www.w3.org/2000/svg">
<mask id="path-1-inside-1_105_213" fill="white">
<path d="M13.6372 22.7471C13.4785 22.7471 13.3497 22.6184 13.3497 22.4596V13.2591C13.3497 13.1868 13.2886 13.1257 13.2163 13.1257H3.53466C3.46234 13.1257 3.40117 13.1868 3.40117 13.2591V22.4596C3.40117 22.6184 3.27245 22.7471 3.11372 22.7471C2.95499 22.7471 2.82628 22.6184 2.82628 22.4596V13.2591C2.82628 12.8685 3.14402 12.5508 3.53466 12.5508H13.2163C13.6068 12.5508 13.9246 12.8685 13.9246 13.2591V22.4596C13.9247 22.6184 13.7959 22.7471 13.6372 22.7471Z"/>
<path d="M12.4044 13.1257C12.2457 13.1257 12.117 12.997 12.117 12.8382V6.8717H4.63391V12.8382C4.63391 12.997 4.50519 13.1257 4.34646 13.1257C4.18774 13.1257 4.05902 12.997 4.05902 12.8382V6.58426C4.05902 6.42553 4.18774 6.29681 4.34646 6.29681H12.4044C12.5632 6.29681 12.6919 6.42553 12.6919 6.58426V12.8382C12.6919 12.997 12.5632 13.1257 12.4044 13.1257Z"/>
<path d="M4.34623 6.87176C4.29012 6.87176 4.23344 6.85538 4.18365 6.82117C4.05287 6.73126 4.01964 6.55229 4.10955 6.4215L7.52964 1.4446C7.74425 1.13226 8.05257 0.953125 8.37543 0.953125C8.69829 0.953125 9.0066 1.13226 9.22121 1.4446L12.6413 6.4215C12.7312 6.55235 12.698 6.73126 12.5672 6.82117C12.4364 6.91108 12.2574 6.87797 12.1675 6.74707L8.74744 1.77016C8.64011 1.61402 8.508 1.52802 8.37543 1.52802C8.24286 1.52802 8.11075 1.61402 8.00341 1.77016L4.58332 6.74707C4.52767 6.82812 4.4377 6.87176 4.34623 6.87176Z"/>
<path d="M10.7508 13.1257C10.592 13.1257 10.4633 12.997 10.4633 12.8382V10.0716C10.4633 8.92039 9.52671 7.98377 8.37548 7.98377C7.22426 7.98377 6.28765 8.92039 6.28765 10.0716V12.8382C6.28765 12.997 6.15893 13.1257 6.0002 13.1257C5.84147 13.1257 5.71275 12.997 5.71275 12.8382V10.0716C5.71275 8.60339 6.90727 7.40888 8.37548 7.40888C9.84376 7.40888 11.0382 8.60339 11.0382 10.0716V12.8382C11.0382 12.997 10.9095 13.1257 10.7508 13.1257Z"/>
<path d="M10.7508 22.7471C10.592 22.7471 10.4633 22.6184 10.4633 22.4596V13.1257H6.28765V22.4596C6.28765 22.6184 6.15893 22.7471 6.0002 22.7471C5.84147 22.7471 5.71275 22.6184 5.71275 22.4596V12.8382C5.71275 12.6794 5.84147 12.5508 6.0002 12.5508H10.7508C10.9095 12.5508 11.0382 12.6794 11.0382 12.8382V22.4596C11.0382 22.6184 10.9095 22.7471 10.7508 22.7471Z"/>
<path d="M18.7411 22.7217C18.6256 22.7217 18.5168 22.6516 18.4728 22.5374L14.858 13.138H12.4044C12.2457 13.138 12.117 13.0093 12.117 12.8505V10.9262C12.117 10.7675 12.2457 10.6388 12.4044 10.6388H16.2335C16.3525 10.6388 16.4591 10.712 16.5018 10.8231L20.1166 20.2225H23.5279C23.6867 20.2225 23.8154 20.3512 23.8154 20.5099V22.4343C23.8154 22.5931 23.6867 22.7217 23.5279 22.7217C23.3691 22.7217 23.2405 22.5931 23.2405 22.4343V20.7974H19.9193C19.8003 20.7974 19.6937 20.7241 19.651 20.6131L16.0362 11.2137H12.6919V12.5631H15.0555C15.1745 12.5631 15.2811 12.6363 15.3238 12.7473L19.0094 22.331C19.0664 22.4792 18.9924 22.6455 18.8443 22.7025C18.8104 22.7155 18.7755 22.7217 18.7411 22.7217Z"/>
<path d="M26.0667 22.7471H1.23129C1.07257 22.7471 0.943848 22.6184 0.943848 22.4596C0.943848 22.3008 1.07257 22.1722 1.23129 22.1722H26.0667C26.2254 22.1722 26.3541 22.3008 26.3541 22.4596C26.3541 22.6184 26.2254 22.7471 26.0667 22.7471Z"/>
<path d="M10.7508 15.2303H6.0002C5.84147 15.2303 5.71275 15.1016 5.71275 14.9429C5.71275 14.7841 5.84147 14.6554 6.0002 14.6554H10.7508C10.9095 14.6554 11.0382 14.7841 11.0382 14.9429C11.0382 15.1016 10.9095 15.2303 10.7508 15.2303Z"/>
<path d="M10.7508 17.9363H6.0002C5.84147 17.9363 5.71275 17.8077 5.71275 17.6489C5.71275 17.4901 5.84147 17.3614 6.0002 17.3614H10.7508C10.9095 17.3614 11.0382 17.4901 11.0382 17.6489C11.0382 17.8077 10.9095 17.9363 10.7508 17.9363Z"/>
<path d="M10.7508 20.6424H6.0002C5.84147 20.6424 5.71275 20.5137 5.71275 20.3549C5.71275 20.1962 5.84147 20.0675 6.0002 20.0675H10.7508C10.9095 20.0675 11.0382 20.1962 11.0382 20.3549C11.0382 20.5137 10.9095 20.6424 10.7508 20.6424Z"/>
<path d="M8.37548 5.90904C7.62013 5.90904 7.00557 5.29454 7.00557 4.53919C7.00557 3.78384 7.62007 3.16934 8.37548 3.16934C9.13084 3.16934 9.74534 3.78384 9.74534 4.53919C9.74534 5.29454 9.13084 5.90904 8.37548 5.90904ZM8.37548 3.74423C7.93713 3.74423 7.58046 4.10083 7.58046 4.53919C7.58046 4.97755 7.93713 5.33415 8.37548 5.33415C8.81384 5.33415 9.17045 4.97755 9.17045 4.53919C9.17045 4.10083 8.81384 3.74423 8.37548 3.74423Z"/>
<path d="M21.6721 8.87072H15.9077C14.9845 8.87072 14.2335 8.11968 14.2335 7.19652C14.2335 6.30698 14.9309 5.57727 15.8076 5.5253C15.943 4.73724 16.6313 4.13562 17.4575 4.13562C17.558 4.13562 17.6569 4.1443 17.7539 4.16166C17.8782 2.9722 18.8868 2.04191 20.1086 2.04191C21.4141 2.04191 22.4762 3.10397 22.4762 4.40944C22.4762 4.82963 22.3656 5.23711 22.1587 5.59446C22.8453 5.80338 23.3463 6.44254 23.3463 7.19657C23.3463 8.11968 22.5953 8.87072 21.6721 8.87072ZM15.9077 6.09721C15.3015 6.09721 14.8084 6.59035 14.8084 7.19652C14.8084 7.80268 15.3015 8.29583 15.9077 8.29583H21.6722C22.2783 8.29583 22.7714 7.80268 22.7714 7.19652C22.7714 6.59035 22.2783 6.09721 21.6722 6.09721L21.6522 6.09744C21.5363 6.09933 21.4322 6.03339 21.3847 5.92876C21.3373 5.82413 21.3567 5.70133 21.4341 5.61642C21.7354 5.28586 21.9013 4.85716 21.9013 4.40938C21.9013 3.42091 21.0972 2.61675 20.1086 2.61675C19.1201 2.61675 18.316 3.42091 18.316 4.40938C18.316 4.44772 18.3173 4.48791 18.32 4.52884C18.3267 4.62985 18.2798 4.72689 18.1965 4.78444C18.1132 4.84193 18.0059 4.85141 17.9138 4.80927C17.7703 4.74368 17.6168 4.71045 17.4575 4.71045C16.8514 4.71045 16.3582 5.20359 16.3582 5.80976C16.3596 5.89266 16.3253 5.97452 16.2637 6.03017C16.2022 6.08582 16.1196 6.11434 16.0373 6.10485C15.9942 6.09979 15.9506 6.09721 15.9077 6.09721Z"/>
</mask>
<path d="M13.6372 22.7471C13.4785 22.7471 13.3497 22.6184 13.3497 22.4596V13.2591C13.3497 13.1868 13.2886 13.1257 13.2163 13.1257H3.53466C3.46234 13.1257 3.40117 13.1868 3.40117 13.2591V22.4596C3.40117 22.6184 3.27245 22.7471 3.11372 22.7471C2.95499 22.7471 2.82628 22.6184 2.82628 22.4596V13.2591C2.82628 12.8685 3.14402 12.5508 3.53466 12.5508H13.2163C13.6068 12.5508 13.9246 12.8685 13.9246 13.2591V22.4596C13.9247 22.6184 13.7959 22.7471 13.6372 22.7471Z" fill="#1C3B39"/>
<path d="M12.4044 13.1257C12.2457 13.1257 12.117 12.997 12.117 12.8382V6.8717H4.63391V12.8382C4.63391 12.997 4.50519 13.1257 4.34646 13.1257C4.18774 13.1257 4.05902 12.997 4.05902 12.8382V6.58426C4.05902 6.42553 4.18774 6.29681 4.34646 6.29681H12.4044C12.5632 6.29681 12.6919 6.42553 12.6919 6.58426V12.8382C12.6919 12.997 12.5632 13.1257 12.4044 13.1257Z" fill="#1C3B39"/>
<path d="M4.34623 6.87176C4.29012 6.87176 4.23344 6.85538 4.18365 6.82117C4.05287 6.73126 4.01964 6.55229 4.10955 6.4215L7.52964 1.4446C7.74425 1.13226 8.05257 0.953125 8.37543 0.953125C8.69829 0.953125 9.0066 1.13226 9.22121 1.4446L12.6413 6.4215C12.7312 6.55235 12.698 6.73126 12.5672 6.82117C12.4364 6.91108 12.2574 6.87797 12.1675 6.74707L8.74744 1.77016C8.64011 1.61402 8.508 1.52802 8.37543 1.52802C8.24286 1.52802 8.11075 1.61402 8.00341 1.77016L4.58332 6.74707C4.52767 6.82812 4.4377 6.87176 4.34623 6.87176Z" fill="#1C3B39"/>
<path d="M10.7508 13.1257C10.592 13.1257 10.4633 12.997 10.4633 12.8382V10.0716C10.4633 8.92039 9.52671 7.98377 8.37548 7.98377C7.22426 7.98377 6.28765 8.92039 6.28765 10.0716V12.8382C6.28765 12.997 6.15893 13.1257 6.0002 13.1257C5.84147 13.1257 5.71275 12.997 5.71275 12.8382V10.0716C5.71275 8.60339 6.90727 7.40888 8.37548 7.40888C9.84376 7.40888 11.0382 8.60339 11.0382 10.0716V12.8382C11.0382 12.997 10.9095 13.1257 10.7508 13.1257Z" fill="#1C3B39"/>
<path d="M10.7508 22.7471C10.592 22.7471 10.4633 22.6184 10.4633 22.4596V13.1257H6.28765V22.4596C6.28765 22.6184 6.15893 22.7471 6.0002 22.7471C5.84147 22.7471 5.71275 22.6184 5.71275 22.4596V12.8382C5.71275 12.6794 5.84147 12.5508 6.0002 12.5508H10.7508C10.9095 12.5508 11.0382 12.6794 11.0382 12.8382V22.4596C11.0382 22.6184 10.9095 22.7471 10.7508 22.7471Z" fill="#1C3B39"/>
<path d="M18.7411 22.7217C18.6256 22.7217 18.5168 22.6516 18.4728 22.5374L14.858 13.138H12.4044C12.2457 13.138 12.117 13.0093 12.117 12.8505V10.9262C12.117 10.7675 12.2457 10.6388 12.4044 10.6388H16.2335C16.3525 10.6388 16.4591 10.712 16.5018 10.8231L20.1166 20.2225H23.5279C23.6867 20.2225 23.8154 20.3512 23.8154 20.5099V22.4343C23.8154 22.5931 23.6867 22.7217 23.5279 22.7217C23.3691 22.7217 23.2405 22.5931 23.2405 22.4343V20.7974H19.9193C19.8003 20.7974 19.6937 20.7241 19.651 20.6131L16.0362 11.2137H12.6919V12.5631H15.0555C15.1745 12.5631 15.2811 12.6363 15.3238 12.7473L19.0094 22.331C19.0664 22.4792 18.9924 22.6455 18.8443 22.7025C18.8104 22.7155 18.7755 22.7217 18.7411 22.7217Z" fill="#1C3B39"/>
<path d="M26.0667 22.7471H1.23129C1.07257 22.7471 0.943848 22.6184 0.943848 22.4596C0.943848 22.3008 1.07257 22.1722 1.23129 22.1722H26.0667C26.2254 22.1722 26.3541 22.3008 26.3541 22.4596C26.3541 22.6184 26.2254 22.7471 26.0667 22.7471Z" fill="#1C3B39"/>
<path d="M10.7508 15.2303H6.0002C5.84147 15.2303 5.71275 15.1016 5.71275 14.9429C5.71275 14.7841 5.84147 14.6554 6.0002 14.6554H10.7508C10.9095 14.6554 11.0382 14.7841 11.0382 14.9429C11.0382 15.1016 10.9095 15.2303 10.7508 15.2303Z" fill="#1C3B39"/>
<path d="M10.7508 17.9363H6.0002C5.84147 17.9363 5.71275 17.8077 5.71275 17.6489C5.71275 17.4901 5.84147 17.3614 6.0002 17.3614H10.7508C10.9095 17.3614 11.0382 17.4901 11.0382 17.6489C11.0382 17.8077 10.9095 17.9363 10.7508 17.9363Z" fill="#1C3B39"/>
<path d="M10.7508 20.6424H6.0002C5.84147 20.6424 5.71275 20.5137 5.71275 20.3549C5.71275 20.1962 5.84147 20.0675 6.0002 20.0675H10.7508C10.9095 20.0675 11.0382 20.1962 11.0382 20.3549C11.0382 20.5137 10.9095 20.6424 10.7508 20.6424Z" fill="#1C3B39"/>
<path d="M8.37548 5.90904C7.62013 5.90904 7.00557 5.29454 7.00557 4.53919C7.00557 3.78384 7.62007 3.16934 8.37548 3.16934C9.13084 3.16934 9.74534 3.78384 9.74534 4.53919C9.74534 5.29454 9.13084 5.90904 8.37548 5.90904ZM8.37548 3.74423C7.93713 3.74423 7.58046 4.10083 7.58046 4.53919C7.58046 4.97755 7.93713 5.33415 8.37548 5.33415C8.81384 5.33415 9.17045 4.97755 9.17045 4.53919C9.17045 4.10083 8.81384 3.74423 8.37548 3.74423Z" fill="#1C3B39"/>
<path d="M21.6721 8.87072H15.9077C14.9845 8.87072 14.2335 8.11968 14.2335 7.19652C14.2335 6.30698 14.9309 5.57727 15.8076 5.5253C15.943 4.73724 16.6313 4.13562 17.4575 4.13562C17.558 4.13562 17.6569 4.1443 17.7539 4.16166C17.8782 2.9722 18.8868 2.04191 20.1086 2.04191C21.4141 2.04191 22.4762 3.10397 22.4762 4.40944C22.4762 4.82963 22.3656 5.23711 22.1587 5.59446C22.8453 5.80338 23.3463 6.44254 23.3463 7.19657C23.3463 8.11968 22.5953 8.87072 21.6721 8.87072ZM15.9077 6.09721C15.3015 6.09721 14.8084 6.59035 14.8084 7.19652C14.8084 7.80268 15.3015 8.29583 15.9077 8.29583H21.6722C22.2783 8.29583 22.7714 7.80268 22.7714 7.19652C22.7714 6.59035 22.2783 6.09721 21.6722 6.09721L21.6522 6.09744C21.5363 6.09933 21.4322 6.03339 21.3847 5.92876C21.3373 5.82413 21.3567 5.70133 21.4341 5.61642C21.7354 5.28586 21.9013 4.85716 21.9013 4.40938C21.9013 3.42091 21.0972 2.61675 20.1086 2.61675C19.1201 2.61675 18.316 3.42091 18.316 4.40938C18.316 4.44772 18.3173 4.48791 18.32 4.52884C18.3267 4.62985 18.2798 4.72689 18.1965 4.78444C18.1132 4.84193 18.0059 4.85141 17.9138 4.80927C17.7703 4.74368 17.6168 4.71045 17.4575 4.71045C16.8514 4.71045 16.3582 5.20359 16.3582 5.80976C16.3596 5.89266 16.3253 5.97452 16.2637 6.03017C16.2022 6.08582 16.1196 6.11434 16.0373 6.10485C15.9942 6.09979 15.9506 6.09721 15.9077 6.09721Z" fill="#1C3B39"/>
<path d="M13.9246 22.4596H13.4161V22.4598L13.9246 22.4596ZM12.117 6.8717H12.6255V6.36318H12.117V6.8717ZM4.63391 6.8717V6.36318H4.12539V6.8717H4.63391ZM4.18365 6.82117L3.89557 7.24022L3.89569 7.24029L4.18365 6.82117ZM4.10955 6.4215L4.5286 6.70959L4.52865 6.70951L4.10955 6.4215ZM7.52964 1.4446L7.94875 1.7326L7.94876 1.73258L7.52964 1.4446ZM9.22121 1.4446L8.80209 1.73258L8.80211 1.7326L9.22121 1.4446ZM12.6413 6.4215L13.0604 6.13351L13.0604 6.1335L12.6413 6.4215ZM12.5672 6.82117L12.2792 6.40206L12.2791 6.40212L12.5672 6.82117ZM12.1675 6.74707L12.5868 6.45928L12.5866 6.45906L12.1675 6.74707ZM8.74744 1.77016L9.16654 1.48216L9.1665 1.4821L8.74744 1.77016ZM8.00341 1.77016L7.58435 1.4821L7.58431 1.48216L8.00341 1.77016ZM4.58332 6.74707L4.16422 6.45906L4.16409 6.45925L4.58332 6.74707ZM10.4633 13.1257H10.9718V12.6172H10.4633V13.1257ZM6.28765 13.1257V12.6172H5.77913V13.1257H6.28765ZM18.4728 22.5374L17.9982 22.7199L17.9982 22.7201L18.4728 22.5374ZM14.858 13.138L15.3327 12.9554L15.2073 12.6295H14.858V13.138ZM16.5018 10.8231L16.9764 10.6405L16.9764 10.6404L16.5018 10.8231ZM20.1166 20.2225L19.642 20.405L19.7674 20.731H20.1166V20.2225ZM23.2405 20.7974H23.749V20.2889H23.2405V20.7974ZM19.651 20.6131L19.1763 20.7957L19.1764 20.7957L19.651 20.6131ZM16.0362 11.2137L16.5108 11.0312L16.3854 10.7052H16.0362V11.2137ZM12.6919 11.2137V10.7052H12.1834V11.2137H12.6919ZM12.6919 12.5631H12.1834V13.0716H12.6919V12.5631ZM15.3238 12.7473L15.7984 12.5648L15.7984 12.5647L15.3238 12.7473ZM19.0094 22.331L19.484 22.1485L19.484 22.1485L19.0094 22.331ZM18.8443 22.7025L19.0262 23.1774L19.0268 23.1772L18.8443 22.7025ZM15.8076 5.5253L15.8377 6.03293L16.2404 6.00906L16.3088 5.61144L15.8076 5.5253ZM17.7539 4.16166L17.6644 4.66223L18.2029 4.75857L18.2597 4.21451L17.7539 4.16166ZM22.1587 5.59446L21.7186 5.33972L21.3975 5.89439L22.0107 6.08096L22.1587 5.59446ZM23.3463 7.19657L23.8548 7.19661V7.19657H23.3463ZM21.6722 6.09721V5.58865L21.6663 5.58872L21.6722 6.09721ZM21.6522 6.09744L21.6463 5.58894L21.6438 5.58899L21.6522 6.09744ZM21.4341 5.61642L21.0582 5.27387L21.0581 5.27404L21.4341 5.61642ZM18.32 4.52884L18.8274 4.49534L18.8274 4.49464L18.32 4.52884ZM18.1965 4.78444L18.4855 5.20287L18.4855 5.20283L18.1965 4.78444ZM17.9138 4.80927L18.1253 4.34686L18.1252 4.34679L17.9138 4.80927ZM16.3582 5.80976H15.8496L15.8498 5.81857L16.3582 5.80976ZM16.2637 6.03017L15.9227 5.65291L15.9224 5.65323L16.2637 6.03017ZM16.0373 6.10485L15.978 6.6099L15.9791 6.61003L16.0373 6.10485ZM13.6372 22.2386C13.7592 22.2386 13.8583 22.3375 13.8583 22.4596H12.8412C12.8412 22.8993 13.1977 23.2556 13.6372 23.2556V22.2386ZM13.8583 22.4596V13.2591H12.8412V22.4596H13.8583ZM13.8583 13.2591C13.8583 12.9058 13.5693 12.6172 13.2163 12.6172V13.6342C13.0079 13.6342 12.8412 13.4678 12.8412 13.2591H13.8583ZM13.2163 12.6172H3.53466V13.6342H13.2163V12.6172ZM3.53466 12.6172C3.18177 12.6172 2.89265 12.9057 2.89265 13.2591H3.90969C3.90969 13.4679 3.7429 13.6342 3.53466 13.6342V12.6172ZM2.89265 13.2591V22.4596H3.90969V13.2591H2.89265ZM2.89265 22.4596C2.89265 22.3375 2.99167 22.2386 3.11372 22.2386V23.2556C3.55323 23.2556 3.90969 22.8993 3.90969 22.4596H2.89265ZM3.11372 22.2386C3.23578 22.2386 3.3348 22.3375 3.3348 22.4596H2.31776C2.31776 22.8993 2.67421 23.2556 3.11372 23.2556V22.2386ZM3.3348 22.4596V13.2591H2.31776V22.4596H3.3348ZM3.3348 13.2591C3.3348 13.1494 3.42484 13.0593 3.53466 13.0593V12.0423C2.8632 12.0423 2.31776 12.5876 2.31776 13.2591H3.3348ZM3.53466 13.0593H13.2163V12.0423H3.53466V13.0593ZM13.2163 13.0593C13.326 13.0593 13.4161 13.1494 13.4161 13.2591H14.4332C14.4332 12.5876 13.8876 12.0423 13.2163 12.0423V13.0593ZM13.4161 13.2591V22.4596H14.4332V13.2591H13.4161ZM13.4161 22.4598C13.4161 22.3374 13.5153 22.2386 13.6372 22.2386V23.2556C14.0765 23.2556 14.4333 22.8995 14.4332 22.4594L13.4161 22.4598ZM12.4044 12.6172C12.5265 12.6172 12.6255 12.7161 12.6255 12.8382H11.6085C11.6085 13.2779 11.9649 13.6342 12.4044 13.6342V12.6172ZM12.6255 12.8382V6.8717H11.6085V12.8382H12.6255ZM12.117 6.36318H4.63391V7.38022H12.117V6.36318ZM4.12539 6.8717V12.8382H5.14243V6.8717H4.12539ZM4.12539 12.8382C4.12539 12.7161 4.22441 12.6172 4.34646 12.6172V13.6342C4.78597 13.6342 5.14243 13.2779 5.14243 12.8382H4.12539ZM4.34646 12.6172C4.46852 12.6172 4.56754 12.7161 4.56754 12.8382H3.5505C3.5505 13.2779 3.90696 13.6342 4.34646 13.6342V12.6172ZM4.56754 12.8382V6.58426H3.5505V12.8382H4.56754ZM4.56754 6.58426C4.56754 6.70638 4.46858 6.80533 4.34646 6.80533V5.78829C3.90689 5.78829 3.5505 6.14468 3.5505 6.58426H4.56754ZM4.34646 6.80533H12.4044V5.78829H4.34646V6.80533ZM12.4044 6.80533C12.2823 6.80533 12.1834 6.70638 12.1834 6.58426H13.2004C13.2004 6.14468 12.844 5.78829 12.4044 5.78829V6.80533ZM12.1834 6.58426V12.8382H13.2004V6.58426H12.1834ZM12.1834 12.8382C12.1834 12.7162 12.2823 12.6172 12.4044 12.6172V13.6342C12.8441 13.6342 13.2004 13.2777 13.2004 12.8382H12.1834ZM4.34623 6.36324C4.38969 6.36324 4.43402 6.37621 4.47162 6.40204L3.89569 7.24029C4.03286 7.33454 4.19056 7.38028 4.34623 7.38028V6.36324ZM4.47174 6.40212C4.57216 6.47116 4.59794 6.60872 4.5286 6.70959L3.6905 6.13342C3.44134 6.49586 3.53357 6.99135 3.89557 7.24022L4.47174 6.40212ZM4.52865 6.70951L7.94875 1.7326L7.11054 1.1566L3.69045 6.1335L4.52865 6.70951ZM7.94876 1.73258C8.08746 1.53073 8.25095 1.46164 8.37543 1.46164V0.444606C7.85418 0.444606 7.40105 0.733797 7.11052 1.15662L7.94876 1.73258ZM8.37543 1.46164C8.4999 1.46164 8.6634 1.53073 8.80209 1.73258L9.64033 1.15662C9.34981 0.733798 8.89667 0.444606 8.37543 0.444606V1.46164ZM8.80211 1.7326L12.2222 6.70951L13.0604 6.1335L9.64031 1.1566L8.80211 1.7326ZM12.2222 6.7095C12.1531 6.60888 12.1786 6.47121 12.2792 6.40206L12.8552 7.24027C13.2175 6.9913 13.3094 6.49581 13.0604 6.13351L12.2222 6.7095ZM12.2791 6.40212C12.3797 6.33301 12.5175 6.3583 12.5868 6.45928L11.7483 7.03485C11.9973 7.39764 12.4932 7.48916 12.8553 7.24022L12.2791 6.40212ZM12.5866 6.45906L9.16654 1.48216L8.32834 2.05817L11.7484 7.03507L12.5866 6.45906ZM9.1665 1.4821C9.00804 1.25158 8.74015 1.0195 8.37543 1.0195V2.03654C8.35296 2.03654 8.33368 2.03281 8.31891 2.02806C8.30447 2.02343 8.29608 2.01841 8.29348 2.01672C8.28944 2.01409 8.304 2.02276 8.32838 2.05823L9.1665 1.4821ZM8.37543 1.0195C8.0107 1.0195 7.74282 1.25158 7.58435 1.4821L8.42247 2.05823C8.44686 2.02276 8.46141 2.01409 8.45737 2.01672C8.45478 2.01841 8.44638 2.02343 8.43195 2.02806C8.41717 2.03281 8.39789 2.03654 8.37543 2.03654V1.0195ZM7.58431 1.48216L4.16422 6.45906L5.00242 7.03507L8.42251 2.05817L7.58431 1.48216ZM4.16409 6.45925C4.20727 6.39636 4.27729 6.36324 4.34623 6.36324V7.38028C4.59811 7.38028 4.84808 7.25989 5.00255 7.03488L4.16409 6.45925ZM10.7508 12.6172C10.8728 12.6172 10.9718 12.7161 10.9718 12.8382H9.9548C9.9548 13.2779 10.3113 13.6342 10.7508 13.6342V12.6172ZM10.9718 12.8382V10.0716H9.9548V12.8382H10.9718ZM10.9718 10.0716C10.9718 8.63954 9.80755 7.47525 8.37548 7.47525V8.49229C9.24586 8.49229 9.9548 9.20124 9.9548 10.0716H10.9718ZM8.37548 7.47525C6.94341 7.47525 5.77913 8.63954 5.77913 10.0716H6.79617C6.79617 9.20124 7.50511 8.49229 8.37548 8.49229V7.47525ZM5.77913 10.0716V12.8382H6.79617V10.0716H5.77913ZM5.77913 12.8382C5.77913 12.7161 5.87815 12.6172 6.0002 12.6172V13.6342C6.43971 13.6342 6.79617 13.2779 6.79617 12.8382H5.77913ZM6.0002 12.6172C6.12225 12.6172 6.22127 12.7161 6.22127 12.8382H5.20423C5.20423 13.2779 5.56069 13.6342 6.0002 13.6342V12.6172ZM6.22127 12.8382V10.0716H5.20423V12.8382H6.22127ZM6.22127 10.0716C6.22127 8.88424 7.18811 7.9174 8.37548 7.9174V6.90036C6.62642 6.90036 5.20423 8.32255 5.20423 10.0716H6.22127ZM8.37548 7.9174C9.5629 7.9174 10.5297 8.88423 10.5297 10.0716H11.5467C11.5467 8.32255 10.1246 6.90036 8.37548 6.90036V7.9174ZM10.5297 10.0716V12.8382H11.5467V10.0716H10.5297ZM10.5297 12.8382C10.5297 12.7161 10.6286 12.6172 10.7508 12.6172V13.6342C11.1903 13.6342 11.5467 13.2778 11.5467 12.8382H10.5297ZM10.7508 22.2386C10.8728 22.2386 10.9718 22.3375 10.9718 22.4596H9.9548C9.9548 22.8993 10.3113 23.2556 10.7508 23.2556V22.2386ZM10.9718 22.4596V13.1257H9.9548V22.4596H10.9718ZM10.4633 12.6172H6.28765V13.6342H10.4633V12.6172ZM5.77913 13.1257V22.4596H6.79617V13.1257H5.77913ZM5.77913 22.4596C5.77913 22.3375 5.87814 22.2386 6.0002 22.2386V23.2556C6.43971 23.2556 6.79617 22.8993 6.79617 22.4596H5.77913ZM6.0002 22.2386C6.12226 22.2386 6.22127 22.3375 6.22127 22.4596H5.20423C5.20423 22.8993 5.56069 23.2556 6.0002 23.2556V22.2386ZM6.22127 22.4596V12.8382H5.20423V22.4596H6.22127ZM6.22127 12.8382C6.22127 12.9604 6.12225 13.0593 6.0002 13.0593V12.0423C5.56069 12.0423 5.20423 12.3985 5.20423 12.8382H6.22127ZM6.0002 13.0593H10.7508V12.0423H6.0002V13.0593ZM10.7508 13.0593C10.6287 13.0593 10.5297 12.9604 10.5297 12.8382H11.5467C11.5467 12.3985 11.1903 12.0423 10.7508 12.0423V13.0593ZM10.5297 12.8382V22.4596H11.5467V12.8382H10.5297ZM10.5297 22.4596C10.5297 22.3375 10.6287 22.2386 10.7508 22.2386V23.2556C11.1903 23.2556 11.5467 22.8993 11.5467 22.4596H10.5297ZM18.7411 22.2132C18.8291 22.2132 18.9133 22.2663 18.9473 22.3547L17.9982 22.7201C18.1202 23.037 18.4222 23.2302 18.7411 23.2302V22.2132ZM18.9474 22.3549L15.3327 12.9554L14.3834 13.3205L17.9982 22.7199L18.9474 22.3549ZM14.858 12.6295H12.4044V13.6465H14.858V12.6295ZM12.4044 12.6295C12.5265 12.6295 12.6255 12.7284 12.6255 12.8505H11.6085C11.6085 13.2902 11.9649 13.6465 12.4044 13.6465V12.6295ZM12.6255 12.8505V10.9262H11.6085V12.8505H12.6255ZM12.6255 10.9262C12.6255 11.0484 12.5266 11.1473 12.4044 11.1473V10.1303C11.9649 10.1303 11.6085 10.4867 11.6085 10.9262H12.6255ZM12.4044 11.1473H16.2335V10.1303H12.4044V11.1473ZM16.2335 11.1473C16.142 11.1473 16.06 11.091 16.0272 11.0057L16.9764 10.6404C16.8582 10.3331 16.5629 10.1303 16.2335 10.1303V11.1473ZM16.0272 11.0056L19.642 20.405L20.5913 20.04L16.9764 10.6405L16.0272 11.0056ZM20.1166 20.731H23.5279V19.714H20.1166V20.731ZM23.5279 20.731C23.4059 20.731 23.3069 20.632 23.3069 20.5099H24.3239C24.3239 20.0703 23.9676 19.714 23.5279 19.714V20.731ZM23.3069 20.5099V22.4343H24.3239V20.5099H23.3069ZM23.3069 22.4343C23.3069 22.3122 23.4059 22.2132 23.5279 22.2132V23.2302C23.9676 23.2302 24.3239 22.8739 24.3239 22.4343H23.3069ZM23.5279 22.2132C23.65 22.2132 23.749 22.3122 23.749 22.4343H22.732C22.732 22.8739 23.0883 23.2302 23.5279 23.2302V22.2132ZM23.749 22.4343V20.7974H22.732V22.4343H23.749ZM23.2405 20.2889H19.9193V21.3059H23.2405V20.2889ZM19.9193 20.2889C20.0107 20.2889 20.0927 20.3452 20.1256 20.4305L19.1764 20.7957C19.2946 21.1031 19.5899 21.3059 19.9193 21.3059V20.2889ZM20.1256 20.4306L16.5108 11.0312L15.5615 11.3962L19.1763 20.7957L20.1256 20.4306ZM16.0362 10.7052H12.6919V11.7222H16.0362V10.7052ZM12.1834 11.2137V12.5631H13.2005V11.2137H12.1834ZM12.6919 13.0716H15.0555V12.0546H12.6919V13.0716ZM15.0555 13.0716C14.964 13.0716 14.882 13.0153 14.8492 12.9299L15.7984 12.5647C15.6802 12.2574 15.3849 12.0546 15.0555 12.0546V13.0716ZM14.8492 12.9299L18.5348 22.5136L19.484 22.1485L15.7984 12.5648L14.8492 12.9299ZM18.5348 22.5135C18.4909 22.3996 18.5477 22.2717 18.6618 22.2279L19.0268 23.1772C19.4371 23.0194 19.6418 22.5587 19.484 22.1485L18.5348 22.5135ZM18.6624 22.2276C18.6871 22.2182 18.7139 22.2132 18.7411 22.2132V23.2302C18.837 23.2302 18.9336 23.2128 19.0262 23.1774L18.6624 22.2276ZM26.0667 22.2386H1.23129V23.2556H26.0667V22.2386ZM1.23129 22.2386C1.35335 22.2386 1.45237 22.3375 1.45237 22.4596H0.435328C0.435328 22.8993 0.791787 23.2556 1.23129 23.2556V22.2386ZM1.45237 22.4596C1.45237 22.5818 1.35335 22.6807 1.23129 22.6807V21.6637C0.791783 21.6637 0.435328 22.0199 0.435328 22.4596H1.45237ZM1.23129 22.6807H26.0667V21.6637H1.23129V22.6807ZM26.0667 22.6807C25.9446 22.6807 25.8456 22.5817 25.8456 22.4596H26.8626C26.8626 22.02 26.5063 21.6637 26.0667 21.6637V22.6807ZM25.8456 22.4596C25.8456 22.3375 25.9446 22.2386 26.0667 22.2386V23.2556C26.5062 23.2556 26.8626 22.8993 26.8626 22.4596H25.8456ZM10.7508 14.7218H6.0002V15.7388H10.7508V14.7218ZM6.0002 14.7218C6.12225 14.7218 6.22127 14.8207 6.22127 14.9429H5.20423C5.20423 15.3826 5.56069 15.7388 6.0002 15.7388V14.7218ZM6.22127 14.9429C6.22127 15.065 6.12226 15.1639 6.0002 15.1639V14.1469C5.56069 14.1469 5.20423 14.5032 5.20423 14.9429H6.22127ZM6.0002 15.1639H10.7508V14.1469H6.0002V15.1639ZM10.7508 15.1639C10.6287 15.1639 10.5297 15.065 10.5297 14.9429H11.5467C11.5467 14.5032 11.1903 14.1469 10.7508 14.1469V15.1639ZM10.5297 14.9429C10.5297 14.8207 10.6287 14.7218 10.7508 14.7218V15.7388C11.1903 15.7388 11.5467 15.3826 11.5467 14.9429H10.5297ZM10.7508 17.4278H6.0002V18.4448H10.7508V17.4278ZM6.0002 17.4278C6.12225 17.4278 6.22127 17.5267 6.22127 17.6489H5.20423C5.20423 18.0886 5.56069 18.4448 6.0002 18.4448V17.4278ZM6.22127 17.6489C6.22127 17.771 6.12226 17.8699 6.0002 17.8699V16.8529C5.56069 16.8529 5.20423 17.2092 5.20423 17.6489H6.22127ZM6.0002 17.8699H10.7508V16.8529H6.0002V17.8699ZM10.7508 17.8699C10.6287 17.8699 10.5297 17.771 10.5297 17.6489H11.5467C11.5467 17.2092 11.1903 16.8529 10.7508 16.8529V17.8699ZM10.5297 17.6489C10.5297 17.5267 10.6287 17.4278 10.7508 17.4278V18.4448C11.1903 18.4448 11.5467 18.0886 11.5467 17.6489H10.5297ZM10.7508 20.1339H6.0002V21.1509H10.7508V20.1339ZM6.0002 20.1339C6.12225 20.1339 6.22127 20.2328 6.22127 20.3549H5.20423C5.20423 20.7946 5.56069 21.1509 6.0002 21.1509V20.1339ZM6.22127 20.3549C6.22127 20.4771 6.12226 20.576 6.0002 20.576V19.559C5.56069 19.559 5.20423 19.9153 5.20423 20.3549H6.22127ZM6.0002 20.576H10.7508V19.559H6.0002V20.576ZM10.7508 20.576C10.6287 20.576 10.5297 20.4771 10.5297 20.3549H11.5467C11.5467 19.9153 11.1903 19.559 10.7508 19.559V20.576ZM10.5297 20.3549C10.5297 20.2328 10.6287 20.1339 10.7508 20.1339V21.1509C11.1903 21.1509 11.5467 20.7946 11.5467 20.3549H10.5297ZM8.37548 5.40053C7.90095 5.40053 7.51409 5.01367 7.51409 4.53919H6.49705C6.49705 5.57542 7.33931 6.41756 8.37548 6.41756V5.40053ZM7.51409 4.53919C7.51409 4.0647 7.90091 3.67786 8.37548 3.67786V2.66082C7.33924 2.66082 6.49705 3.50298 6.49705 4.53919H7.51409ZM8.37548 3.67786C8.84999 3.67786 9.23682 4.06469 9.23682 4.53919H10.2539C10.2539 3.50299 9.41168 2.66082 8.37548 2.66082V3.67786ZM9.23682 4.53919C9.23682 5.01369 8.84999 5.40053 8.37548 5.40053V6.41756C9.41168 6.41756 10.2539 5.57539 10.2539 4.53919H9.23682ZM8.37548 3.23571C7.65633 3.23571 7.07195 3.81994 7.07195 4.53919H8.08898C8.08898 4.38173 8.21793 4.25275 8.37548 4.25275V3.23571ZM7.07195 4.53919C7.07195 5.25844 7.65633 5.84267 8.37548 5.84267V4.82563C8.21793 4.82563 8.08898 4.69665 8.08898 4.53919H7.07195ZM8.37548 5.84267C9.09469 5.84267 9.67897 5.25839 9.67897 4.53919H8.66193C8.66193 4.6967 8.53299 4.82563 8.37548 4.82563V5.84267ZM9.67897 4.53919C9.67897 3.81999 9.09469 3.23571 8.37548 3.23571V4.25275C8.53299 4.25275 8.66193 4.38168 8.66193 4.53919H9.67897ZM21.6721 8.3622H15.9077V9.37924H21.6721V8.3622ZM15.9077 8.3622C15.2654 8.3622 14.742 7.83883 14.742 7.19652H13.7249C13.7249 8.40053 14.7037 9.37924 15.9077 9.37924V8.3622ZM14.742 7.19652C14.742 6.57793 15.2279 6.06908 15.8377 6.03293L15.7775 5.01767C14.6339 5.08547 13.7249 6.03604 13.7249 7.19652H14.742ZM16.3088 5.61144C16.403 5.0629 16.8835 4.64413 17.4575 4.64413V3.6271C16.3792 3.6271 15.483 4.41158 15.3064 5.43917L16.3088 5.61144ZM17.4575 4.64413C17.5286 4.64413 17.5975 4.65026 17.6644 4.66223L17.8435 3.66109C17.7163 3.63833 17.5874 3.6271 17.4575 3.6271V4.64413ZM18.2597 4.21451C18.3572 3.28107 19.1502 2.55043 20.1086 2.55043V1.53339C18.6235 1.53339 17.3992 2.66334 17.2482 4.10881L18.2597 4.21451ZM20.1086 2.55043C21.1333 2.55043 21.9677 3.38483 21.9677 4.40944H22.9847C22.9847 2.82311 21.6949 1.53339 20.1086 1.53339V2.55043ZM21.9677 4.40944C21.9677 4.73996 21.8807 5.0596 21.7186 5.33972L22.5988 5.84921C22.8504 5.41462 22.9847 4.9193 22.9847 4.40944H21.9677ZM22.0107 6.08096C22.4896 6.22669 22.8378 6.67307 22.8378 7.19657H23.8548C23.8548 6.21202 23.201 5.38007 22.3067 5.10797L22.0107 6.08096ZM22.8378 7.19654C22.8378 7.83884 22.3144 8.3622 21.6721 8.3622V9.37924C22.8761 9.37924 23.8548 8.40052 23.8548 7.19661L22.8378 7.19654ZM15.9077 5.58869C15.0207 5.58869 14.2998 6.3095 14.2998 7.19652H15.3169C15.3169 6.8712 15.5824 6.60573 15.9077 6.60573V5.58869ZM14.2998 7.19652C14.2998 8.08353 15.0207 8.80435 15.9077 8.80435V7.78731C15.5823 7.78731 15.3169 7.52184 15.3169 7.19652H14.2998ZM15.9077 8.80435H21.6722V7.78731H15.9077V8.80435ZM21.6722 8.80435C22.5591 8.80435 23.2799 8.08351 23.2799 7.19652H22.2629C22.2629 7.52185 21.9974 7.78731 21.6722 7.78731V8.80435ZM23.2799 7.19652C23.2799 6.30952 22.5591 5.58869 21.6722 5.58869V6.60573C21.9974 6.60573 22.2629 6.87118 22.2629 7.19652H23.2799ZM21.6663 5.58872L21.6463 5.58895L21.658 6.60592L21.678 6.60569L21.6663 5.58872ZM21.6438 5.58899C21.7296 5.58758 21.8112 5.63796 21.8479 5.71882L20.9216 6.13871C21.0531 6.42882 21.3431 6.61109 21.6605 6.60589L21.6438 5.58899ZM21.8479 5.71882C21.8844 5.79932 21.8694 5.89365 21.81 5.95881L21.0581 5.27404C20.8441 5.50902 20.7902 5.84894 20.9216 6.13871L21.8479 5.71882ZM21.8099 5.95898C22.1967 5.53465 22.4098 4.98375 22.4098 4.40938H21.3928C21.3928 4.73058 21.2741 5.03707 21.0582 5.27387L21.8099 5.95898ZM22.4098 4.40938C22.4098 3.14005 21.378 2.10823 20.1086 2.10823V3.12527C20.8163 3.12527 21.3928 3.70177 21.3928 4.40938H22.4098ZM20.1086 2.10823C18.8393 2.10823 17.8074 3.14005 17.8074 4.40938H18.8245C18.8245 3.70177 19.4009 3.12527 20.1086 3.12527V2.10823ZM17.8074 4.40938C17.8074 4.45924 17.8091 4.51084 17.8127 4.56305L18.8274 4.49464C18.8254 4.46498 18.8245 4.43621 18.8245 4.40938H17.8074ZM17.8126 4.56234C17.8075 4.48472 17.8436 4.41017 17.9075 4.36605L18.4855 5.20283C18.716 5.04361 18.8459 4.77498 18.8274 4.49534L17.8126 4.56234ZM17.9075 4.36601C17.9716 4.32172 18.0544 4.31441 18.1253 4.34686L17.7022 5.27169C17.9573 5.38842 18.2548 5.36214 18.4855 5.20287L17.9075 4.36601ZM18.1252 4.34679C17.9146 4.25054 17.6889 4.20193 17.4575 4.20193V5.21897C17.5446 5.21897 17.6259 5.23682 17.7023 5.27176L18.1252 4.34679ZM17.4575 4.20193C16.5705 4.20193 15.8497 4.92276 15.8497 5.80976H16.8667C16.8667 5.48442 17.1322 5.21897 17.4575 5.21897V4.20193ZM15.8498 5.81857C15.8487 5.7593 15.8719 5.69882 15.9227 5.65291L16.6047 6.40743C16.7786 6.25023 16.8706 6.02602 16.8667 5.80094L15.8498 5.81857ZM15.9224 5.65323C15.9629 5.61656 16.0238 5.59142 16.0955 5.59968L15.9791 6.61003C16.2154 6.63726 16.4416 6.55508 16.605 6.40712L15.9224 5.65323ZM16.0966 5.59981C16.0342 5.59247 15.9707 5.58869 15.9077 5.58869V6.60573C15.9304 6.60573 15.9543 6.60711 15.978 6.6099L16.0966 5.59981Z" fill="#1C3B39" mask="url(#path-1-inside-1_105_213)"/>
</svg>
