<svg width="28" height="19" viewBox="0 0 28 19" fill="none" xmlns="http://www.w3.org/2000/svg">
<path d="M7.62847 8.86796L7.45423 8.95489C7.45423 8.95489 7.45422 8.9549 7.45422 8.9549L7.62847 8.86796ZM7.62847 8.86796C7.81887 8.99885 7.9923 9.15271 8.14473 9.32553M7.62847 8.86796L8.14473 9.32553M8.20272 11.6405V11.6286C8.20488 11.5133 8.2695 11.4031 8.37986 11.348L8.37987 11.348L8.84214 11.1174C8.84247 11.1349 8.84263 11.1525 8.84263 11.1701V11.8322L8.66564 11.9205L8.20272 11.6405ZM8.20272 11.6405C8.20359 11.6866 8.21445 11.7332 8.23639 11.7771M8.20272 11.6405L8.23639 11.7771M12.7694 7.01803L12.7028 6.97337L12.7694 7.01803ZM12.7694 7.01803L10.1697 8.31518M12.7694 7.01803L10.1697 8.31518M8.86969 8.24865C8.88028 8.2059 8.89672 8.164 8.91923 8.1241L8.86969 8.24865ZM8.86969 8.24865L7.80957 8.77759C7.99362 8.91324 8.16152 9.06958 8.30981 9.24316L9.14294 8.82747L9.07622 8.78276C8.897 8.66266 8.82066 8.44658 8.86969 8.24865ZM10.1697 8.31518L9.63138 7.95441C9.60489 7.93665 9.57732 7.92177 9.54902 7.9097L10.1697 8.31518ZM8.14473 9.32553L7.73998 9.52748C7.73998 9.52748 7.73997 9.52748 7.73997 9.52748C7.5818 9.60637 7.38974 9.5422 7.3108 9.38407L8.14473 9.32553ZM8.23639 11.7771C8.2924 11.8893 8.40533 11.9543 8.52303 11.9543C8.57085 11.9543 8.61955 11.9435 8.66563 11.9205L8.23639 11.7771ZM3.89929 11.1397L3.89916 16.2507H3.25925L3.25938 11.137C3.25938 11.136 3.25938 11.1354 3.25938 11.1352L3.25941 11.1352L3.25944 11.1328C3.26902 10.4012 3.55926 9.71361 4.077 9.19608L4.07703 9.19605C4.60421 8.66867 5.30498 8.37836 6.0509 8.37836C6.56127 8.37836 7.04011 8.51605 7.45222 8.75623L7.37445 8.79503L7.37444 8.79504C7.18341 8.89038 7.08039 9.09173 7.10096 9.2922C6.79019 9.11774 6.43196 9.0182 6.0509 9.0182C5.47625 9.0182 4.93567 9.24212 4.52952 9.64841C4.13123 10.0465 3.90738 10.5758 3.8993 11.1384H3.89929V11.1397ZM3.25925 16.4294H3.89916L3.89915 16.7493C3.89915 16.926 3.75589 17.0693 3.57919 17.0693C3.4025 17.0693 3.25924 16.926 3.25924 16.7493L3.25925 16.4294ZM3.08058 16.7493C3.08058 16.9151 3.16147 17.062 3.28593 17.1526V17.1586V18.0192H2.64602V16.7493C2.64602 16.5726 2.78928 16.4294 2.96598 16.4294H3.08059L3.08058 16.7493ZM2.64602 18.1978H3.28593V18.5178C3.28593 18.6945 3.14267 18.8377 2.96598 18.8377C2.78928 18.8377 2.64602 18.6945 2.64602 18.5178V18.1978ZM3.34841 18.8377C3.42093 18.7511 3.46459 18.6396 3.46459 18.5178V18.1978H8.63728V18.5178C8.63728 18.6396 8.68094 18.7511 8.75347 18.8377H3.34841ZM2.46736 18.5178C2.46736 18.6396 2.51102 18.7511 2.58355 18.8377H1.36095C1.18425 18.8377 1.04099 18.6945 1.04099 18.5178C1.04099 18.3411 1.18425 18.1978 1.36095 18.1978H2.46736V18.5178ZM8.20272 11.2518V11.17C8.20272 10.6199 7.9953 10.1174 7.65454 9.73662C7.71053 9.73013 7.76637 9.71397 7.81972 9.68736L7.81974 9.68735L8.26148 9.46694C8.57836 9.87725 8.78373 10.3778 8.83178 10.9229L8.30012 11.1881C8.26452 11.2059 8.23198 11.2273 8.20272 11.2518ZM8.74539 12.0804L8.84263 12.0319V16.2507H8.20272V12.0168C8.29261 12.0919 8.40648 12.133 8.52303 12.133C8.59801 12.133 8.67407 12.116 8.74538 12.0804L8.74539 12.0804ZM8.20272 16.4294H8.84263V16.7494C8.84263 16.926 8.69938 17.0693 8.52268 17.0693C8.34598 17.0693 8.20272 16.926 8.20272 16.7493V16.4294ZM8.81594 17.1526C8.9404 17.062 9.0213 16.9151 9.0213 16.7494V16.4294H9.1359C9.31259 16.4294 9.45585 16.5726 9.45585 16.7493V18.0192H8.81594V17.1586V17.1526ZM8.14025 17.0693H3.96162C4.03415 16.9827 4.07781 16.8711 4.07781 16.7493L4.07782 16.4294H8.02406V16.7493C8.02406 16.8711 8.06773 16.9827 8.14025 17.0693ZM8.81594 18.5178V18.1978H9.45585V18.5178C9.45585 18.6945 9.31259 18.8377 9.1359 18.8377C8.9592 18.8377 8.81594 18.6945 8.81594 18.5178ZM9.63451 18.5178V18.1978H22.0389V18.5178C22.0389 18.6396 22.0826 18.7511 22.1551 18.8377H9.51833C9.59085 18.7511 9.63451 18.6396 9.63451 18.5178ZM25.0735 10.8266V18.0192H24.4336V11.2359V11.1466H24.3443H22.9468H22.8575V11.2359V18.0192H22.2176V10.8266C22.2176 10.6499 22.3608 10.5067 22.5375 10.5067H24.7536C24.9303 10.5067 25.0735 10.6499 25.0735 10.8266ZM24.4336 18.1978H25.0735V18.5178C25.0735 18.6945 24.9303 18.8377 24.7536 18.8377C24.5769 18.8377 24.4336 18.6945 24.4336 18.5178V18.1978ZM24.255 18.5178C24.255 18.6396 24.2986 18.7511 24.3712 18.8377H22.92C22.9925 18.7511 23.0362 18.6396 23.0362 18.5178V18.1978H24.255V18.5178ZM22.7096 4.91345L22.5923 4.97199C22.5657 4.97897 22.5382 4.98254 22.5105 4.98254C22.4493 4.98254 22.3876 4.96505 22.3327 4.92831L21.8693 4.61766L22.5281 4.28893L22.689 4.39678C22.8358 4.49515 22.8751 4.69392 22.7767 4.84073C22.7577 4.86903 22.735 4.89335 22.7096 4.91345ZM24.8801 3.83052L22.9981 4.76955C23.0407 4.57518 22.9638 4.36585 22.7885 4.24837L22.7388 4.32258L22.7885 4.24837L22.7121 4.19714L24.5944 3.258L24.5545 3.17806L24.5944 3.25799C24.788 3.16138 24.867 2.92537 24.7704 2.73174C24.7704 2.73173 24.7703 2.73172 24.7703 2.73172L24.2659 1.72053L24.1859 1.76041L24.2658 1.72053C24.2191 1.62688 24.1385 1.55672 24.0391 1.52355C23.9399 1.4904 23.8332 1.49787 23.7395 1.54452L23.7394 1.54455L20.8817 2.9704L20.3436 2.60973L20.2939 2.68394L20.3436 2.60973C20.317 2.59194 20.2894 2.57703 20.261 2.56494L23.4538 0.9719C23.7008 0.848739 23.9804 0.829144 24.242 0.916569C24.5038 1.00406 24.7153 1.18788 24.8385 1.43483L24.8385 1.43485L25.3429 2.44591L25.3429 2.44593C25.597 2.95494 25.3894 3.57626 24.8801 3.83051C24.8801 3.83052 24.8801 3.83052 24.8801 3.83052ZM20.2441 2.75815L20.6978 3.06219L20.0389 3.39093L19.8878 3.28967C19.7411 3.19129 19.7018 2.99254 19.8002 2.8458L19.8002 2.84579C19.8986 2.69899 20.0973 2.65976 20.2441 2.75815ZM20.2097 3.50539L20.8686 3.17665L22.3573 4.17447L21.6985 4.5032L20.2097 3.50539ZM19.7884 3.43808L19.855 3.48271L17.339 4.73804L16.8008 4.37734L16.8008 4.37732C16.7743 4.35955 16.7467 4.34466 16.7183 4.33258L19.5819 2.9038C19.5328 3.10179 19.6092 3.31796 19.7884 3.43808L19.8381 3.36388L19.7884 3.43808ZM16.7014 4.52576L17.1551 4.82982L16.4962 5.15856L16.3451 5.05728C16.1983 4.9589 16.1591 4.76014 16.2574 4.61341C16.3558 4.46666 16.5545 4.42737 16.7014 4.52575C16.7014 4.52575 16.7014 4.52576 16.7014 4.52576ZM16.667 5.27302L17.3258 4.94428L18.8146 5.94208L18.1557 6.27081L16.667 5.27302ZM16.2456 5.20569L16.3123 5.25035L13.7962 6.50574L13.258 6.14502C13.2314 6.12724 13.2038 6.11235 13.1755 6.10026L16.0391 4.67145C15.9901 4.86943 16.0664 5.08557 16.2456 5.20569L16.2954 5.13148L16.2456 5.20569ZM13.1585 6.29343L13.6122 6.59753L12.9534 6.92624L12.8023 6.82496L12.8023 6.82495C12.6555 6.72658 12.6162 6.52784 12.7146 6.38109L12.7146 6.38107C12.813 6.23427 13.0117 6.19505 13.1585 6.29342L13.2082 6.21922L13.1585 6.29343ZM13.1242 7.0407L13.783 6.71198L15.2717 7.70975L14.6129 8.03847L13.1242 7.0407ZM9.0213 11.1701C9.0213 11.123 9.0202 11.0762 9.01802 11.0296L10.9732 10.0541L11.5211 10.4214L11.5211 10.4214C11.5438 10.4366 11.5673 10.4497 11.5914 10.4607L9.0213 11.7431V11.1701ZM10.9863 9.84789L9.49767 8.85015L10.1565 8.52143L11.6452 9.51917L10.9863 9.84789ZM11.6206 10.273L11.1571 9.96234L11.8159 9.63363L11.9768 9.74145L11.9768 9.74146C12.1236 9.83983 12.1629 10.0386 12.0645 10.1853L12.0645 10.1854C12.0455 10.2137 12.0227 10.2381 11.9973 10.2582L11.8803 10.3166C11.8536 10.3236 11.8261 10.3272 11.7984 10.3272C11.7372 10.3272 11.6754 10.3097 11.6206 10.273C11.6206 10.273 11.6206 10.273 11.6206 10.273ZM12.0763 9.59304L11.9999 9.54185L14.5997 8.24471L15.1477 8.61201L15.1477 8.61201C15.1704 8.6272 15.1939 8.6403 15.218 8.65133L12.2858 10.1143C12.3285 9.91992 12.2516 9.71054 12.0763 9.59304C12.0763 9.59304 12.0763 9.59304 12.0763 9.59304ZM9.5319 8.10281L9.98572 8.40697L9.32689 8.73569L9.17568 8.63434L9.17568 8.63434C9.02887 8.53597 8.98965 8.33723 9.08802 8.19047L9.08803 8.19046C9.1864 8.04365 9.38515 8.00444 9.5319 8.10281L9.58164 8.02861L9.5319 8.10281ZM15.2472 8.46359L14.7837 8.15293L15.4425 7.82421L15.6034 7.93206C15.7502 8.03044 15.7894 8.2292 15.6911 8.37602L15.6911 8.37603C15.6721 8.4043 15.6495 8.42859 15.6241 8.44867L15.5066 8.50731C15.48 8.51427 15.4526 8.51782 15.425 8.51782C15.3638 8.51782 15.302 8.50033 15.2472 8.46359C15.2472 8.46359 15.2472 8.46359 15.2472 8.46359ZM15.7029 7.78365L15.6265 7.73243L18.1425 6.47705L18.6905 6.84433L18.7403 6.77012L18.6905 6.84433C18.7132 6.85954 18.7367 6.87263 18.7608 6.88367L15.9124 8.30483C15.955 8.11046 15.8781 7.90113 15.7029 7.78366L15.6531 7.85786L15.7029 7.78365ZM18.79 6.69591L18.3265 6.38527L18.9854 6.05653L19.1463 6.16439C19.2931 6.26276 19.3323 6.46152 19.2339 6.60834C19.215 6.63665 19.1922 6.66097 19.1669 6.68107L19.0496 6.73958C19.023 6.74657 18.9955 6.75014 18.9678 6.75014C18.9066 6.75014 18.8448 6.73266 18.79 6.69591ZM19.2458 6.01598L19.1693 5.96475L21.6853 4.70945L22.2333 5.07672L22.283 5.00252L22.2333 5.07673C22.256 5.09193 22.2795 5.10503 22.3035 5.11606L19.4553 6.53716C19.4979 6.34278 19.421 6.13346 19.2458 6.01598L19.196 6.09018L19.2458 6.01598ZM25.2522 18.1978H26.7367C26.9134 18.1978 27.0567 18.3411 27.0567 18.5178C27.0567 18.6945 26.9134 18.8377 26.7367 18.8377H25.136C25.2086 18.7511 25.2522 18.6396 25.2522 18.5178V18.1978ZM22.2176 18.1978H22.8575V18.5178C22.8575 18.6945 22.7142 18.8377 22.5375 18.8377C22.3608 18.8377 22.2176 18.6945 22.2176 18.5178V18.1978ZM6.05097 12.4876C5.43522 12.4876 4.93419 11.9865 4.93419 11.3708C4.93419 10.7551 5.43528 10.254 6.05097 10.254C6.66666 10.254 7.16776 10.7551 7.16776 11.3708C7.16769 11.9865 6.66665 12.4876 6.05097 12.4876ZM6.05097 10.8939C5.78789 10.8939 5.5741 11.1078 5.5741 11.3708C5.5741 11.6338 5.78798 11.8476 6.05097 11.8476C6.31406 11.8476 6.52785 11.6338 6.52785 11.3708C6.52785 11.1078 6.31397 10.8939 6.05097 10.8939Z" fill="#1C3B39" stroke="#1C3B39" stroke-width="0.178661"/>
</svg>
