<svg width="25" height="24" viewBox="0 0 25 24" fill="none" xmlns="http://www.w3.org/2000/svg">
<mask id="path-1-inside-1_105_218" fill="white">
<path d="M24.2819 8.35543H24.2756L14.708 4.14177V2.82812H15.0863C15.2658 2.82905 15.4403 2.76911 15.5814 2.65808C15.7224 2.54705 15.8217 2.39148 15.8629 2.21677C15.9042 2.04207 15.885 1.85853 15.8085 1.69613C15.732 1.53373 15.6027 1.40206 15.4418 1.3226L13.1017 0.164714C12.9911 0.110318 12.8695 0.0820313 12.7462 0.0820312C12.6229 0.0820312 12.5013 0.110318 12.3907 0.164714L10.0506 1.3226C9.88964 1.40206 9.76036 1.53373 9.68387 1.69613C9.60738 1.85853 9.58819 2.04207 9.62944 2.21677C9.67069 2.39148 9.76995 2.54705 9.91101 2.65808C10.0521 2.76911 10.2266 2.82905 10.4061 2.82812H10.7843V4.14177L1.21602 8.3519H1.20974C1.13958 8.3827 1.07997 8.43337 1.03828 8.49766C0.996579 8.56195 0.974619 8.63704 0.975106 8.71366V9.89077C0.975106 10.0989 1.05778 10.2985 1.20495 10.4457C1.35212 10.5928 1.55172 10.6755 1.75984 10.6755H2.15221V20.8771H1.75984C1.55172 20.8771 1.35212 20.9598 1.20495 21.107C1.05778 21.2541 0.975106 21.4537 0.975106 21.6619V22.839C0.975106 23.0471 1.05778 23.2467 1.20495 23.3939C1.35212 23.541 1.55172 23.6237 1.75984 23.6237H23.7325C23.9407 23.6237 24.1403 23.541 24.2874 23.3939C24.4346 23.2467 24.5173 23.0471 24.5173 22.839V21.6619C24.5173 21.4537 24.4346 21.2541 24.2874 21.107C24.1403 20.9598 23.9407 20.8771 23.7325 20.8771H23.3402V10.6755H23.7325C23.9407 10.6755 24.1403 10.5928 24.2874 10.4457C24.4346 10.2985 24.5173 10.0989 24.5173 9.89077V8.71366C24.517 8.63755 24.4946 8.56316 24.4528 8.49955C24.411 8.43595 24.3516 8.38587 24.2819 8.35543ZM14.2333 4.78997L22.2592 8.32129H3.23319L11.2591 4.78997H14.2333ZM10.3986 2.02612L12.7529 0.868232L15.0926 2.02612L15.0863 2.04338L10.3986 2.02612ZM13.9233 2.82812V4.00523H11.5691V2.82812H13.9233ZM2.93695 10.6755H3.72169V20.8771H2.93695V10.6755ZM19.8088 20.8771V16.1687H20.986V20.8771H19.8088ZM17.847 16.1687H19.0241V20.8771H17.847V16.1687ZM20.986 15.3839H17.847V10.6755H20.986V15.3839ZM17.0623 20.8771H16.2775V10.6755H17.0623V20.8771ZM15.4928 20.8771H9.99961V10.6755H15.4928V20.8771ZM9.21487 20.8771H8.43013V10.6755H9.21487V20.8771ZM4.50643 16.1687H5.68354V20.8771H4.50643V16.1687ZM6.46828 16.1687H7.64539V20.8771H6.46828V16.1687ZM7.64539 15.3839H4.50643V10.6755H7.64539V15.3839ZM23.7325 22.839H1.75984V21.6619H23.7325V22.839ZM22.5554 20.8771H21.7707V10.6755H22.5554V20.8771ZM1.75984 9.89077V9.10603H23.7325V9.89077H1.75984Z"/>
</mask>
<path d="M24.2819 8.35543H24.2756L14.708 4.14177V2.82812H15.0863C15.2658 2.82905 15.4403 2.76911 15.5814 2.65808C15.7224 2.54705 15.8217 2.39148 15.8629 2.21677C15.9042 2.04207 15.885 1.85853 15.8085 1.69613C15.732 1.53373 15.6027 1.40206 15.4418 1.3226L13.1017 0.164714C12.9911 0.110318 12.8695 0.0820313 12.7462 0.0820312C12.6229 0.0820312 12.5013 0.110318 12.3907 0.164714L10.0506 1.3226C9.88964 1.40206 9.76036 1.53373 9.68387 1.69613C9.60738 1.85853 9.58819 2.04207 9.62944 2.21677C9.67069 2.39148 9.76995 2.54705 9.91101 2.65808C10.0521 2.76911 10.2266 2.82905 10.4061 2.82812H10.7843V4.14177L1.21602 8.3519H1.20974C1.13958 8.3827 1.07997 8.43337 1.03828 8.49766C0.996579 8.56195 0.974619 8.63704 0.975106 8.71366V9.89077C0.975106 10.0989 1.05778 10.2985 1.20495 10.4457C1.35212 10.5928 1.55172 10.6755 1.75984 10.6755H2.15221V20.8771H1.75984C1.55172 20.8771 1.35212 20.9598 1.20495 21.107C1.05778 21.2541 0.975106 21.4537 0.975106 21.6619V22.839C0.975106 23.0471 1.05778 23.2467 1.20495 23.3939C1.35212 23.541 1.55172 23.6237 1.75984 23.6237H23.7325C23.9407 23.6237 24.1403 23.541 24.2874 23.3939C24.4346 23.2467 24.5173 23.0471 24.5173 22.839V21.6619C24.5173 21.4537 24.4346 21.2541 24.2874 21.107C24.1403 20.9598 23.9407 20.8771 23.7325 20.8771H23.3402V10.6755H23.7325C23.9407 10.6755 24.1403 10.5928 24.2874 10.4457C24.4346 10.2985 24.5173 10.0989 24.5173 9.89077V8.71366C24.517 8.63755 24.4946 8.56316 24.4528 8.49955C24.411 8.43595 24.3516 8.38587 24.2819 8.35543ZM14.2333 4.78997L22.2592 8.32129H3.23319L11.2591 4.78997H14.2333ZM10.3986 2.02612L12.7529 0.868232L15.0926 2.02612L15.0863 2.04338L10.3986 2.02612ZM13.9233 2.82812V4.00523H11.5691V2.82812H13.9233ZM2.93695 10.6755H3.72169V20.8771H2.93695V10.6755ZM19.8088 20.8771V16.1687H20.986V20.8771H19.8088ZM17.847 16.1687H19.0241V20.8771H17.847V16.1687ZM20.986 15.3839H17.847V10.6755H20.986V15.3839ZM17.0623 20.8771H16.2775V10.6755H17.0623V20.8771ZM15.4928 20.8771H9.99961V10.6755H15.4928V20.8771ZM9.21487 20.8771H8.43013V10.6755H9.21487V20.8771ZM4.50643 16.1687H5.68354V20.8771H4.50643V16.1687ZM6.46828 16.1687H7.64539V20.8771H6.46828V16.1687ZM7.64539 15.3839H4.50643V10.6755H7.64539V15.3839ZM23.7325 22.839H1.75984V21.6619H23.7325V22.839ZM22.5554 20.8771H21.7707V10.6755H22.5554V20.8771ZM1.75984 9.89077V9.10603H23.7325V9.89077H1.75984Z" fill="#1C3B39" stroke="#1C3B39" stroke-width="0.893882" mask="url(#path-1-inside-1_105_218)"/>
</svg>
