<svg width="110" height="127" viewBox="0 0 110 127" fill="none" xmlns="http://www.w3.org/2000/svg">
<path fill-rule="evenodd" clip-rule="evenodd" d="M11.9306 6.04684H97.5294C101.113 6.04684 104.019 8.95216 104.019 12.536V114.46C104.019 118.044 101.113 120.949 97.5294 120.949H11.9306C8.34669 120.949 5.44137 118.044 5.44137 114.46V12.5361C5.44137 8.95216 8.34669 6.04684 11.9306 6.04684ZM0.25 12.5361C0.25 6.08505 5.47957 0.855469 11.9306 0.855469H97.5294C103.98 0.855469 109.21 6.08504 109.21 12.536V114.46C109.21 120.911 103.98 126.141 97.5294 126.141H11.9306C5.47958 126.141 0.25 120.911 0.25 114.46V12.5361ZM67.5867 36.0423C64.3019 35.1079 60.5717 34.6406 56.3961 34.6406H26.332V92.3574H38.4412V75.0423H56.3961C60.5717 75.0423 64.3019 74.6026 67.5867 73.7231C70.9271 72.7886 73.7387 71.4694 76.0213 69.7654C78.304 68.0064 80.0577 65.8901 81.2826 63.4165C82.5074 60.888 83.1198 58.0297 83.1198 54.8415C83.1198 51.6533 82.5074 48.8225 81.2826 46.3489C80.0577 43.8203 78.304 41.7041 76.0213 40C73.7387 38.2411 70.9271 36.9218 67.5867 36.0423ZM38.4412 68.8584V40.8246H56.3961C60.7944 40.8246 64.1905 41.9789 66.5845 44.2876C69.0342 46.5413 70.259 50.0592 70.259 54.8415C70.259 59.6237 69.0342 63.1692 66.5845 65.4779C64.1905 67.7316 60.7944 68.8584 56.3961 68.8584H38.4412Z" fill="url(#paint0_linear_105_106)"/>
<path fill-rule="evenodd" clip-rule="evenodd" d="M11.9306 6.04684H97.5294C101.113 6.04684 104.019 8.95216 104.019 12.536V114.46C104.019 118.044 101.113 120.949 97.5294 120.949H11.9306C8.34669 120.949 5.44137 118.044 5.44137 114.46V12.5361C5.44137 8.95216 8.34669 6.04684 11.9306 6.04684ZM0.25 12.5361C0.25 6.08505 5.47957 0.855469 11.9306 0.855469H97.5294C103.98 0.855469 109.21 6.08504 109.21 12.536V114.46C109.21 120.911 103.98 126.141 97.5294 126.141H11.9306C5.47958 126.141 0.25 120.911 0.25 114.46V12.5361ZM67.5867 36.0423C64.3019 35.1079 60.5717 34.6406 56.3961 34.6406H26.332V92.3574H38.4412V75.0423H56.3961C60.5717 75.0423 64.3019 74.6026 67.5867 73.7231C70.9271 72.7886 73.7387 71.4694 76.0213 69.7654C78.304 68.0064 80.0577 65.8901 81.2826 63.4165C82.5074 60.888 83.1198 58.0297 83.1198 54.8415C83.1198 51.6533 82.5074 48.8225 81.2826 46.3489C80.0577 43.8203 78.304 41.7041 76.0213 40C73.7387 38.2411 70.9271 36.9218 67.5867 36.0423ZM38.4412 68.8584V40.8246H56.3961C60.7944 40.8246 64.1905 41.9789 66.5845 44.2876C69.0342 46.5413 70.259 50.0592 70.259 54.8415C70.259 59.6237 69.0342 63.1692 66.5845 65.4779C64.1905 67.7316 60.7944 68.8584 56.3961 68.8584H38.4412Z" fill="#DEC58C"/>
<path fill-rule="evenodd" clip-rule="evenodd" d="M11.9306 6.04684H97.5294C101.113 6.04684 104.019 8.95216 104.019 12.536V114.46C104.019 118.044 101.113 120.949 97.5294 120.949H11.9306C8.34669 120.949 5.44137 118.044 5.44137 114.46V12.5361C5.44137 8.95216 8.34669 6.04684 11.9306 6.04684ZM0.25 12.5361C0.25 6.08505 5.47957 0.855469 11.9306 0.855469H97.5294C103.98 0.855469 109.21 6.08504 109.21 12.536V114.46C109.21 120.911 103.98 126.141 97.5294 126.141H11.9306C5.47958 126.141 0.25 120.911 0.25 114.46V12.5361ZM67.5867 36.0423C64.3019 35.1079 60.5717 34.6406 56.3961 34.6406H26.332V92.3574H38.4412V75.0423H56.3961C60.5717 75.0423 64.3019 74.6026 67.5867 73.7231C70.9271 72.7886 73.7387 71.4694 76.0213 69.7654C78.304 68.0064 80.0577 65.8901 81.2826 63.4165C82.5074 60.888 83.1198 58.0297 83.1198 54.8415C83.1198 51.6533 82.5074 48.8225 81.2826 46.3489C80.0577 43.8203 78.304 41.7041 76.0213 40C73.7387 38.2411 70.9271 36.9218 67.5867 36.0423ZM38.4412 68.8584V40.8246H56.3961C60.7944 40.8246 64.1905 41.9789 66.5845 44.2876C69.0342 46.5413 70.259 50.0592 70.259 54.8415C70.259 59.6237 69.0342 63.1692 66.5845 65.4779C64.1905 67.7316 60.7944 68.8584 56.3961 68.8584H38.4412Z" fill="url(#paint1_linear_105_106)"/>
<defs>
<linearGradient id="paint0_linear_105_106" x1="-50.9845" y1="-359.233" x2="117.056" y2="-345.292" gradientUnits="userSpaceOnUse">
<stop stop-color="#AA851B"/>
<stop offset="1" stop-color="#F7CD93"/>
</linearGradient>
<linearGradient id="paint1_linear_105_106" x1="0.25" y1="63.498" x2="109.21" y2="63.498" gradientUnits="userSpaceOnUse">
<stop stop-color="#FFFFE3"/>
<stop offset="0.41" stop-color="#DEC48F"/>
<stop offset="1" stop-color="#F4E5B1"/>
</linearGradient>
</defs>
</svg>
